<svg width="269" height="70" viewBox="0 0 269 70" fill="none" xmlns="http://www.w3.org/2000/svg">
<path d="M98.992 25.552C98.16 25.552 97.4027 25.7653 96.72 26.192C96.0587 26.6187 95.4933 27.2267 95.024 28.016C94.5547 28.8053 94.192 29.7653 93.936 30.896C93.7013 32.0053 93.584 33.2533 93.584 34.64C93.584 36.0907 93.712 37.3707 93.968 38.48C94.224 39.5893 94.5867 40.5387 95.056 41.328C95.5467 42.1173 96.1547 42.7147 96.88 43.12C97.6053 43.5253 98.4373 43.728 99.376 43.728C100.4 43.728 101.296 43.472 102.064 42.96C102.853 42.4267 103.515 41.6907 104.048 40.752C104.581 39.8133 104.976 38.7467 105.232 37.552L107.504 38.48C107.184 40.016 106.64 41.3813 105.872 42.576C105.125 43.7493 104.144 44.6667 102.928 45.328C101.712 45.9893 100.261 46.32 98.576 46.32C96.8907 46.32 95.3547 46.0427 93.968 45.488C92.5813 44.9333 91.376 44.144 90.352 43.12C89.328 42.0747 88.528 40.8373 87.952 39.408C87.3973 37.9787 87.12 36.3893 87.12 34.64C87.12 32.8907 87.408 31.3013 87.984 29.872C88.5813 28.4427 89.3813 27.216 90.384 26.192C91.408 25.1467 92.5813 24.3467 93.904 23.792C95.2267 23.2373 96.6347 22.96 98.128 22.96C99.6427 22.96 100.891 23.216 101.872 23.728C102.875 24.24 103.675 24.944 104.272 25.84C104.891 26.736 105.371 27.7707 105.712 28.944L104.048 28.624L104.656 23.28H107.152V30.448H104.272C103.952 29.4667 103.557 28.6133 103.088 27.888C102.64 27.1413 102.075 26.5653 101.392 26.16C100.731 25.7547 99.9307 25.552 98.992 25.552ZM120.212 36.144V38.032C119.487 38.1387 118.836 38.2667 118.26 38.416C117.705 38.5653 117.215 38.7467 116.788 38.96C116.361 39.1733 116.009 39.4187 115.732 39.696C115.476 39.952 115.273 40.2613 115.124 40.624C114.996 40.9653 114.932 41.328 114.932 41.712C114.932 42.2027 115.007 42.608 115.156 42.928C115.327 43.248 115.561 43.4933 115.86 43.664C116.159 43.8133 116.511 43.888 116.916 43.888C117.407 43.888 117.855 43.76 118.26 43.504C118.665 43.2267 119.028 42.8427 119.348 42.352C119.668 41.8613 119.945 41.2853 120.18 40.624L120.244 42.832C119.924 43.5787 119.519 44.208 119.028 44.72C118.537 45.232 117.94 45.6267 117.236 45.904C116.553 46.1813 115.753 46.32 114.836 46.32C113.748 46.32 112.799 46.16 111.988 45.84C111.199 45.4987 110.58 45.008 110.132 44.368C109.705 43.7067 109.492 42.9067 109.492 41.968C109.492 41.072 109.716 40.304 110.164 39.664C110.633 39.024 111.316 38.48 112.212 38.032C113.108 37.584 114.228 37.2107 115.572 36.912C116.916 36.592 118.463 36.336 120.212 36.144ZM119.892 46V42.832L119.508 42.896V34.16C119.508 33.5627 119.423 33.0827 119.252 32.72C119.081 32.336 118.815 32.0693 118.452 31.92C118.111 31.7493 117.684 31.664 117.172 31.664C116.404 31.664 115.764 31.8347 115.252 32.176C114.761 32.496 114.388 32.9013 114.132 33.392C113.94 33.1787 113.833 32.976 113.812 32.784C113.791 32.5707 113.823 32.3787 113.908 32.208C114.015 32.0373 114.175 31.888 114.388 31.76C114.601 31.6107 114.857 31.5147 115.156 31.472V34.896H110.612V31.408C110.932 31.1733 111.401 30.896 112.02 30.576C112.66 30.2347 113.46 29.936 114.42 29.68C115.38 29.4027 116.5 29.264 117.78 29.264C118.868 29.264 119.86 29.3813 120.756 29.616C121.673 29.8293 122.463 30.16 123.124 30.608C123.785 31.056 124.297 31.6427 124.66 32.368C125.023 33.072 125.204 33.936 125.204 34.96V42.992C125.204 43.2053 125.268 43.376 125.396 43.504C125.524 43.632 125.705 43.728 125.94 43.792C126.175 43.856 126.452 43.9093 126.772 43.952L126.9 43.984V46H119.892ZM137.937 53.136H128.017V51.184H128.049C128.369 51.184 128.657 51.152 128.913 51.088C129.169 51.0453 129.372 50.9493 129.521 50.8C129.671 50.672 129.745 50.48 129.745 50.224V32.752C129.745 32.5387 129.692 32.368 129.585 32.24C129.479 32.112 129.319 32.016 129.105 31.952C128.892 31.8667 128.615 31.7813 128.273 31.696L128.017 31.632V29.584H135.185V33.84L135.569 33.904V50.896C135.569 50.96 135.676 51.0133 135.889 51.056C136.124 51.0987 136.391 51.1307 136.689 51.152C137.009 51.1733 137.297 51.184 137.553 51.184H137.937V53.136ZM140.273 46.32C139.441 46.32 138.695 46.224 138.033 46.032C137.393 45.84 136.807 45.5413 136.273 45.136C135.74 44.7093 135.249 44.1653 134.801 43.504L134.897 39.792C135.217 40.5387 135.548 41.1893 135.889 41.744C136.252 42.2987 136.657 42.736 137.105 43.056C137.553 43.3547 138.076 43.504 138.673 43.504C139.228 43.504 139.697 43.3653 140.081 43.088C140.487 42.8107 140.817 42.416 141.073 41.904C141.329 41.392 141.521 40.7733 141.649 40.048C141.777 39.3227 141.841 38.512 141.841 37.616C141.841 36.7413 141.777 35.9627 141.649 35.28C141.521 34.5973 141.34 34.0213 141.105 33.552C140.871 33.0827 140.561 32.7307 140.177 32.496C139.815 32.2613 139.388 32.144 138.897 32.144C138.3 32.144 137.767 32.3147 137.297 32.656C136.849 32.976 136.423 33.4453 136.017 34.064C135.633 34.6613 135.249 35.3867 134.865 36.24L134.801 33.04C135.313 32.208 135.836 31.5147 136.369 30.96C136.924 30.4053 137.532 29.9893 138.193 29.712C138.876 29.4133 139.655 29.264 140.529 29.264C142.001 29.264 143.281 29.616 144.369 30.32C145.479 31.024 146.332 32.0053 146.929 33.264C147.527 34.5013 147.825 35.952 147.825 37.616C147.825 39.3227 147.505 40.8373 146.865 42.16C146.225 43.4613 145.34 44.4853 144.209 45.232C143.079 45.9573 141.767 46.32 140.273 46.32ZM161.484 23.28C162.828 23.28 164.012 23.408 165.036 23.664C166.081 23.92 166.945 24.2933 167.628 24.784C168.332 25.2533 168.865 25.8293 169.228 26.512C169.59 27.1947 169.772 27.9627 169.772 28.816C169.772 29.968 169.462 30.9387 168.844 31.728C168.246 32.5173 167.404 33.1147 166.316 33.52C165.228 33.9253 163.958 34.1493 162.508 34.192L163.884 33.552V34.48L162.796 33.776C164.353 33.8187 165.729 34.064 166.924 34.512C168.118 34.96 169.046 35.6107 169.708 36.464C170.39 37.3173 170.732 38.3627 170.732 39.6C170.732 40.6027 170.529 41.4987 170.124 42.288C169.74 43.0773 169.164 43.7493 168.396 44.304C167.649 44.8587 166.721 45.2853 165.612 45.584C164.502 45.8613 163.222 46 161.772 46H149.836V43.92H150.156C150.71 43.92 151.169 43.8453 151.532 43.696C151.894 43.5467 152.076 43.2373 152.076 42.768V26.512C152.076 26.0427 151.894 25.7333 151.532 25.584C151.169 25.4347 150.71 25.36 150.156 25.36H149.836V23.28H161.484ZM157.228 33.008H160.012C160.886 33.008 161.59 32.8587 162.124 32.56C162.657 32.2613 163.041 31.824 163.276 31.248C163.51 30.672 163.628 29.968 163.628 29.136C163.628 28.368 163.489 27.728 163.212 27.216C162.956 26.704 162.572 26.32 162.06 26.064C161.548 25.7867 160.918 25.648 160.172 25.648H158.252V43.632H160.364C161.26 43.632 162.006 43.4827 162.604 43.184C163.222 42.8853 163.681 42.4267 163.98 41.808C164.3 41.168 164.46 40.3573 164.46 39.376C164.46 38.5227 164.31 37.7973 164.012 37.2C163.713 36.5813 163.254 36.112 162.636 35.792C162.017 35.4507 161.217 35.28 160.236 35.28H157.228V33.008ZM179.752 29.584V40.784C179.752 41.3387 179.805 41.7973 179.911 42.16C180.04 42.5013 180.232 42.7573 180.488 42.928C180.744 43.0987 181.085 43.184 181.512 43.184C181.981 43.184 182.429 43.056 182.856 42.8C183.282 42.544 183.698 42.1493 184.104 41.616C184.509 41.0613 184.904 40.3467 185.288 39.472L185.352 42.384C184.925 43.2587 184.402 43.984 183.784 44.56C183.186 45.136 182.514 45.5733 181.768 45.872C181.021 46.1707 180.2 46.32 179.304 46.32C178.216 46.32 177.266 46.1173 176.456 45.712C175.645 45.2853 175.016 44.6667 174.568 43.856C174.141 43.024 173.928 42 173.928 40.784V32.752C173.928 32.4107 173.81 32.176 173.576 32.048C173.341 31.92 172.968 31.8027 172.456 31.696L172.168 31.632V29.584H179.752ZM190.472 29.584V42.992C190.472 43.2053 190.536 43.376 190.664 43.504C190.792 43.632 190.973 43.728 191.208 43.792C191.442 43.856 191.72 43.9093 192.04 43.952L192.232 43.984V46H185.032V42.32L184.648 42.448V32.752C184.648 32.4107 184.488 32.176 184.168 32.048C183.848 31.8987 183.432 31.7813 182.92 31.696L182.44 31.632V29.584H190.472ZM198.063 27.344C197.103 27.344 196.335 27.12 195.759 26.672C195.204 26.2027 194.927 25.552 194.927 24.72C194.927 23.888 195.204 23.248 195.759 22.8C196.335 22.3307 197.103 22.096 198.063 22.096C199.044 22.096 199.812 22.3307 200.367 22.8C200.943 23.248 201.231 23.888 201.231 24.72C201.231 25.552 200.943 26.2027 200.367 26.672C199.812 27.12 199.044 27.344 198.063 27.344ZM201.071 29.584V43.088C201.071 43.472 201.231 43.728 201.551 43.856C201.892 43.984 202.297 44.048 202.767 44.048H202.799V46H193.519V44.048H193.551C194.041 44.048 194.447 43.984 194.767 43.856C195.087 43.728 195.247 43.472 195.247 43.088V32.752C195.247 32.4107 195.129 32.176 194.895 32.048C194.66 31.92 194.287 31.8027 193.775 31.696L193.519 31.632V29.584H201.071ZM211.664 22.448V43.088C211.664 43.472 211.824 43.728 212.144 43.856C212.464 43.984 212.858 44.048 213.328 44.048H213.36V46H204.08V44.048H204.112C204.602 44.048 205.008 43.984 205.328 43.856C205.648 43.728 205.808 43.472 205.808 43.088V25.584C205.808 25.3707 205.754 25.2 205.648 25.072C205.562 24.944 205.413 24.8373 205.2 24.752C204.986 24.6667 204.709 24.592 204.368 24.528L204.08 24.464V22.448H211.664ZM232.98 42.992C232.98 43.3333 233.108 43.568 233.364 43.696C233.641 43.8027 234.036 43.888 234.548 43.952L234.676 43.984V46H227.476V42.224L227.124 42.48V25.584C227.124 25.3707 227.06 25.2 226.932 25.072C226.825 24.944 226.654 24.8373 226.42 24.752C226.206 24.6667 225.918 24.592 225.556 24.528L225.3 24.464V22.448H232.98V42.992ZM222.42 29.264C223.401 29.264 224.254 29.424 224.98 29.744C225.726 30.0427 226.377 30.5013 226.932 31.12C227.486 31.7173 227.966 32.4747 228.372 33.392L228.276 36.464C227.806 35.4827 227.358 34.672 226.932 34.032C226.526 33.392 226.089 32.912 225.62 32.592C225.172 32.272 224.638 32.112 224.02 32.112C223.486 32.112 223.017 32.2507 222.612 32.528C222.228 32.8053 221.897 33.2 221.62 33.712C221.364 34.2027 221.172 34.8107 221.044 35.536C220.916 36.2613 220.852 37.0827 220.852 38C220.852 38.8747 220.916 39.6533 221.044 40.336C221.172 40.9973 221.353 41.5627 221.588 42.032C221.844 42.5013 222.153 42.8533 222.516 43.088C222.9 43.3227 223.337 43.44 223.828 43.44C224.425 43.44 224.958 43.2693 225.428 42.928C225.897 42.5867 226.356 42.064 226.804 41.36C227.252 40.656 227.742 39.7493 228.276 38.64L228.372 41.744C227.838 42.7467 227.284 43.5893 226.708 44.272C226.153 44.9547 225.513 45.4667 224.788 45.808C224.062 46.1493 223.198 46.32 222.196 46.32C220.724 46.32 219.433 45.9787 218.324 45.296C217.236 44.592 216.382 43.6213 215.764 42.384C215.166 41.1253 214.868 39.664 214.868 38C214.868 36.272 215.188 34.7573 215.828 33.456C216.468 32.1547 217.353 31.1307 218.484 30.384C219.636 29.6373 220.948 29.264 222.42 29.264ZM242.068 37.872C242.068 38.832 242.153 39.6853 242.324 40.432C242.494 41.1573 242.761 41.776 243.124 42.288C243.486 42.7787 243.934 43.152 244.468 43.408C245.022 43.6427 245.662 43.76 246.388 43.76C247.156 43.76 247.817 43.6213 248.372 43.344C248.926 43.0453 249.406 42.6613 249.812 42.192C250.217 41.7227 250.548 41.2533 250.804 40.784L252.788 42.192C252.382 43.0027 251.849 43.7173 251.188 44.336C250.526 44.9547 249.726 45.4453 248.788 45.808C247.87 46.1493 246.772 46.32 245.492 46.32C243.636 46.32 242.004 45.9787 240.596 45.296C239.209 44.6133 238.132 43.6427 237.364 42.384C236.596 41.104 236.212 39.5893 236.212 37.84C236.212 36.1333 236.585 34.64 237.332 33.36C238.1 32.0587 239.134 31.056 240.436 30.352C241.758 29.6267 243.252 29.264 244.916 29.264C246.26 29.264 247.433 29.4667 248.436 29.872C249.46 30.256 250.313 30.8427 250.996 31.632C251.678 32.4213 252.201 33.4027 252.564 34.576C252.926 35.7493 253.108 37.1253 253.108 38.704H241.3L241.268 36.432H248.372L247.668 37.36C247.646 36.272 247.582 35.3653 247.476 34.64C247.369 33.9147 247.209 33.3387 246.996 32.912C246.782 32.4853 246.516 32.1867 246.196 32.016C245.876 31.824 245.492 31.728 245.044 31.728C244.596 31.728 244.19 31.8453 243.828 32.08C243.465 32.3147 243.156 32.6773 242.9 33.168C242.644 33.6587 242.441 34.2987 242.292 35.088C242.142 35.856 242.068 36.784 242.068 37.872ZM267.793 29.552V34.512C267.622 34.448 267.43 34.4053 267.217 34.384C267.025 34.3413 266.811 34.3093 266.577 34.288C266.342 34.2667 266.107 34.256 265.873 34.256C265.382 34.256 264.923 34.3093 264.497 34.416C264.091 34.5013 263.707 34.6507 263.345 34.864C263.003 35.056 262.694 35.3227 262.417 35.664C262.139 35.984 261.883 36.3893 261.649 36.88V35.056C261.926 33.9467 262.267 32.9653 262.673 32.112C263.099 31.2587 263.622 30.5973 264.241 30.128C264.859 29.6373 265.649 29.392 266.609 29.392C266.865 29.392 267.099 29.4133 267.313 29.456C267.526 29.4773 267.686 29.5093 267.793 29.552ZM254.769 46V44.048H254.801C255.291 44.048 255.686 43.984 255.985 43.856C256.305 43.728 256.465 43.472 256.465 43.088V32.752C256.465 32.5387 256.411 32.368 256.305 32.24C256.219 32.112 256.07 32.016 255.857 31.952C255.643 31.8667 255.366 31.7813 255.025 31.696L254.769 31.632V29.584H261.937V34.8L262.321 34.416V43.472C262.321 43.6427 262.438 43.7707 262.673 43.856C262.907 43.9413 263.185 43.9947 263.505 44.016C263.825 44.0373 264.113 44.048 264.369 44.048H264.657V46H254.769Z" fill="#3A86FF"/>
<path fill-rule="evenodd" clip-rule="evenodd" d="M9.92579 0.00634766C6.8611 0.00634766 4.3772 2.49244 4.3772 5.55604V64.4446C4.3772 67.5104 6.8611 69.9943 9.92579 69.9943H59.9911C63.0558 69.9943 65.5408 67.5104 65.5408 64.4446V22.2204L44.8656 0.00634766H9.92579Z" fill="url(#paint0_linear_328_108)"/>
<path fill-rule="evenodd" clip-rule="evenodd" d="M65.5408 22.2656V23.3582H51.5408C51.5408 23.3582 44.6371 21.9801 44.8383 16.0225C44.8383 16.0225 45.115 22.2656 51.4041 22.2656H65.5408Z" fill="white"/>
<path opacity="0.5" fill-rule="evenodd" clip-rule="evenodd" d="M44.8657 0.00634766V15.9313C44.8657 17.7426 46.0732 22.2663 51.542 22.2663H65.542L44.8657 0.00634766Z" fill="white"/>
<path d="M26.3987 58.9781C26.064 58.9781 25.749 58.7813 25.6112 58.4466L24.6268 55.9452H18.0883L17.104 58.4466C16.9662 58.7813 16.6512 58.9781 16.3165 58.9781C15.8046 58.9781 15.4294 58.5647 15.4294 58.1119C15.4294 58.0135 15.4491 57.8953 15.4885 57.7969L20.0177 46.493C20.2343 45.9614 20.7473 45.606 21.3576 45.606C21.9285 45.606 22.4404 45.9603 22.6569 46.493L27.2255 57.7969C27.2649 57.8953 27.2846 58.0135 27.2846 58.1119C27.2846 58.5056 26.9302 58.9781 26.3987 58.9781ZM21.3565 47.4183L18.5598 54.4872H24.1324L21.3565 47.4183ZM30.6676 58.9781C30.2148 58.9781 29.8604 58.6238 29.8604 58.171V46.3935C29.8604 45.9603 30.2148 45.606 30.7069 45.606C31.1401 45.606 31.4944 45.9603 31.4944 46.3935V58.1699C31.4944 58.6238 31.1401 58.9781 30.6676 58.9781Z" fill="white"/>
<defs>
<linearGradient id="paint0_linear_328_108" x1="34.959" y1="0.00634766" x2="34.959" y2="69.9943" gradientUnits="userSpaceOnUse">
<stop stop-color="#3A86FF"/>
<stop offset="1" stop-color="#6C63FF"/>
</linearGradient>
</defs>
</svg>
