<svg width="42" height="42" viewBox="0 0 42 42" fill="none" xmlns="http://www.w3.org/2000/svg">
<path fill-rule="evenodd" clip-rule="evenodd" d="M38.5 7V35H3.5V7H38.5ZM35 10.5H7V31.5H35V10.5ZM31.5 24.5V27.125H22.75V24.5H31.5ZM15.5312 19.775C18.06 19.775 20.125 21.875 20.125 24.5H9.625C9.625 21.875 11.6817 19.775 14.2188 19.775H15.5312ZM31.5 19.25V21.875H22.75V19.25H31.5ZM14.875 13.4498C16.1435 13.4498 17.1719 14.4782 17.1719 15.7467C17.1719 17.0152 16.1435 18.0436 14.875 18.0436C13.6065 18.0436 12.5781 17.0152 12.5781 15.7467C12.5781 14.4782 13.6065 13.4498 14.875 13.4498ZM31.5 14V16.625H22.75V14H31.5Z" fill="#4567FF"/>
</svg>
