<svg width="42" height="42" viewBox="0 0 42 42" fill="none" xmlns="http://www.w3.org/2000/svg">
<path d="M7.875 5.25V34.125H23.625V5.25H7.875ZM6.5625 2.625H24.9375C25.2856 2.625 25.6194 2.76328 25.8656 3.00942C26.1117 3.25556 26.25 3.5894 26.25 3.9375V35.4375C26.25 35.7856 26.1117 36.1194 25.8656 36.3656C25.6194 36.6117 25.2856 36.75 24.9375 36.75H6.5625C6.2144 36.75 5.88056 36.6117 5.63442 36.3656C5.38828 36.1194 5.25 35.7856 5.25 35.4375V3.9375C5.25 3.5894 5.38828 3.25556 5.63442 3.00942C5.88056 2.76328 6.2144 2.625 6.5625 2.625Z" fill="#4567FF"/>
<path d="M10.5 10.5H21V13.125H10.5V10.5ZM10.5 18.375H21V21H10.5V18.375ZM10.5 26.25H21V28.875H10.5V26.25ZM26.25 21H31.5V23.625H26.25V21ZM26.25 26.25H31.5V28.875H26.25V26.25ZM2.625 34.125H39.375V36.75H2.625V34.125Z" fill="#4567FF"/>
<path d="M26.25 15.75V34.125H34.125V15.75H26.25ZM24.9375 13.125H35.4375C35.7856 13.125 36.1194 13.2633 36.3656 13.5094C36.6117 13.7556 36.75 14.0894 36.75 14.4375V35.4375C36.75 35.7856 36.6117 36.1194 36.3656 36.3656C36.1194 36.6117 35.7856 36.75 35.4375 36.75H24.9375C24.5894 36.75 24.2556 36.6117 24.0094 36.3656C23.7633 36.1194 23.625 35.7856 23.625 35.4375V14.4375C23.625 14.0894 23.7633 13.7556 24.0094 13.5094C24.2556 13.2633 24.5894 13.125 24.9375 13.125Z" fill="#4567FF"/>
</svg>
