<svg width="120" height="120" viewBox="0 0 120 120" fill="none" xmlns="http://www.w3.org/2000/svg">
<path d="M55.868 80.8279L51.42 91.0159C49.712 94.9319 44.292 94.9319 42.58 91.0159L38.132 80.8279C34.172 71.7599 27.048 64.5439 18.16 60.5999L5.91998 55.1679C2.02798 53.4399 2.02798 47.7759 5.91998 46.0479L17.78 40.7839C26.896 36.7359 34.148 29.2519 38.04 19.8799L42.544 9.02393C44.216 4.99593 49.784 4.99593 51.456 9.02393L55.96 19.8799C59.852 29.2559 67.104 36.7399 76.22 40.7839L88.08 46.0479C91.972 47.7759 91.972 53.4399 88.08 55.1679L75.836 60.6039C66.952 64.5479 59.824 71.7639 55.868 80.8279Z" fill="url(#paint0_linear_260_334)"/>
<path d="M96.924 113.184L95.568 116.292C94.576 118.568 91.424 118.568 90.432 116.292L89.076 113.184C86.66 107.644 82.304 103.232 76.872 100.816L72.696 98.96C70.436 97.956 70.436 94.672 72.696 93.668L76.64 91.916C82.212 89.44 86.644 84.864 89.02 79.136L90.412 75.776C91.384 73.436 94.62 73.436 95.588 75.776L96.98 79.136C99.356 84.864 103.788 89.44 109.36 91.916L113.304 93.668C115.564 94.672 115.564 97.956 113.304 98.96L109.128 100.816C103.696 103.232 99.34 107.644 96.924 113.184Z" fill="url(#paint1_linear_260_334)"/>
<defs>
<linearGradient id="paint0_linear_260_334" x1="47" y1="6.00293" x2="47" y2="93.9529" gradientUnits="userSpaceOnUse">
<stop stop-color="#3A86FF" stop-opacity="0.5"/>
<stop offset="1" stop-color="#6C63FF" stop-opacity="0.5"/>
</linearGradient>
<linearGradient id="paint1_linear_260_334" x1="93" y1="74.021" x2="93" y2="117.999" gradientUnits="userSpaceOnUse">
<stop stop-color="#3A86FF" stop-opacity="0.5"/>
<stop offset="1" stop-color="#6C63FF" stop-opacity="0.5"/>
</linearGradient>
</defs>
</svg>
