<svg width="120" height="113" viewBox="0 0 120 113" fill="none" xmlns="http://www.w3.org/2000/svg">
<path d="M5.33647 98.8235H68.8235C71.7424 98.8235 74.1176 96.4482 74.1176 93.5294V26.4706C74.1176 26.3894 74.0824 26.3188 74.0718 26.2412C74.0612 26.1635 74.0471 26.0965 74.0259 26.0224C73.9447 25.7188 73.8141 25.4365 73.5953 25.2212L48.8929 0.518824C48.6776 0.303529 48.3953 0.172941 48.0918 0.0882353C48.0177 0.0670588 47.9506 0.0529412 47.8729 0.0423529C47.7988 0.0352941 47.7282 0 47.6471 0H5.31529C2.38588 0 0 2.37529 0 5.29412V93.5294C0 96.4482 2.39294 98.8235 5.33647 98.8235ZM49.4118 6.02471L68.0929 24.7059H51.1765C50.2059 24.7059 49.4118 23.9153 49.4118 22.9412V6.02471ZM3.52941 5.29412C3.52941 4.32 4.33059 3.52941 5.31529 3.52941H45.8824V22.9412C45.8824 25.86 48.2576 28.2353 51.1765 28.2353H70.5882V93.5294C70.5882 94.5035 69.7941 95.2941 68.8235 95.2941H5.33647C4.33765 95.2941 3.52941 94.5035 3.52941 93.5294V5.29412Z" fill="url(#paint0_linear_260_317)"/>
<path d="M15.8824 42.3531H58.2353C59.2094 42.3531 60 41.5626 60 40.5884C60 39.6143 59.2094 38.8237 58.2353 38.8237H15.8824C14.9083 38.8237 14.1177 39.6143 14.1177 40.5884C14.1177 41.5626 14.9083 42.3531 15.8824 42.3531Z" fill="url(#paint1_linear_260_317)"/>
<path d="M15.8824 56.4708H58.2353C59.2094 56.4708 60 55.6802 60 54.7061C60 53.732 59.2094 52.9414 58.2353 52.9414H15.8824C14.9083 52.9414 14.1177 53.732 14.1177 54.7061C14.1177 55.6802 14.9083 56.4708 15.8824 56.4708Z" fill="url(#paint2_linear_260_317)"/>
<path d="M15.8824 28.2355H33.5294C34.5036 28.2355 35.2941 27.4449 35.2941 26.4708C35.2941 25.4966 34.5036 24.7061 33.5294 24.7061H15.8824C14.9083 24.7061 14.1177 25.4966 14.1177 26.4708C14.1177 27.4449 14.9083 28.2355 15.8824 28.2355Z" fill="url(#paint3_linear_260_317)"/>
<path d="M15.8824 70.588H58.2353C59.2094 70.588 60 69.7974 60 68.8233C60 67.8492 59.2094 67.0586 58.2353 67.0586H15.8824C14.9083 67.0586 14.1177 67.8492 14.1177 68.8233C14.1177 69.7974 14.9083 70.588 15.8824 70.588Z" fill="url(#paint4_linear_260_317)"/>
<path d="M15.8824 84.7057H58.2353C59.2094 84.7057 60 83.9151 60 82.941C60 81.9669 59.2094 81.1763 58.2353 81.1763H15.8824C14.9083 81.1763 14.1177 81.9669 14.1177 82.941C14.1177 83.9151 14.9083 84.7057 15.8824 84.7057Z" fill="url(#paint5_linear_260_317)"/>
<path d="M75.8823 17.6471H91.7647V37.0589C91.7647 39.9777 94.14 42.353 97.0588 42.353H116.471V107.647C116.471 108.621 115.676 109.412 114.706 109.412H51.2188C50.22 109.412 49.4117 108.621 49.4117 107.647V104.118C49.4117 103.144 48.6211 102.353 47.647 102.353C46.6729 102.353 45.8823 103.144 45.8823 104.118V107.647C45.8823 110.566 48.2753 112.941 51.2188 112.941H114.706C117.625 112.941 120 110.566 120 107.647V40.5883C120 40.5071 119.965 40.4365 119.954 40.3589C119.943 40.2812 119.929 40.2141 119.908 40.14C119.827 39.8365 119.696 39.5541 119.478 39.3389L94.7753 14.6365C94.56 14.4177 94.2741 14.2871 93.9706 14.2059C93.8964 14.1847 93.8329 14.1741 93.7553 14.1636C93.6811 14.153 93.6106 14.1177 93.5294 14.1177H75.8823C74.9082 14.1177 74.1176 14.9083 74.1176 15.8824C74.1176 16.8565 74.9082 17.6471 75.8823 17.6471ZM97.0588 38.8236C96.0882 38.8236 95.2941 38.033 95.2941 37.0589V20.1424L113.975 38.8236H97.0588Z" fill="url(#paint6_linear_260_317)"/>
<path d="M82.9412 56.4708H104.118C105.092 56.4708 105.882 55.6802 105.882 54.7061C105.882 53.732 105.092 52.9414 104.118 52.9414H82.9412C81.9671 52.9414 81.1765 53.732 81.1765 54.7061C81.1765 55.6802 81.9671 56.4708 82.9412 56.4708Z" fill="url(#paint7_linear_260_317)"/>
<path d="M82.9412 70.588H104.118C105.092 70.588 105.882 69.7974 105.882 68.8233C105.882 67.8492 105.092 67.0586 104.118 67.0586H82.9412C81.9671 67.0586 81.1765 67.8492 81.1765 68.8233C81.1765 69.7974 81.9671 70.588 82.9412 70.588Z" fill="url(#paint8_linear_260_317)"/>
<path d="M82.9412 84.7057H104.118C105.092 84.7057 105.882 83.9151 105.882 82.941C105.882 81.9669 105.092 81.1763 104.118 81.1763H82.9412C81.9671 81.1763 81.1765 81.9669 81.1765 82.941C81.1765 83.9151 81.9671 84.7057 82.9412 84.7057Z" fill="url(#paint9_linear_260_317)"/>
<path d="M82.9412 98.8234H104.118C105.092 98.8234 105.882 98.0328 105.882 97.0587C105.882 96.0845 105.092 95.2939 104.118 95.2939H82.9412C81.9671 95.2939 81.1765 96.0845 81.1765 97.0587C81.1765 98.0328 81.9671 98.8234 82.9412 98.8234Z" fill="url(#paint10_linear_260_317)"/>
<defs>
<linearGradient id="paint0_linear_260_317" x1="37.0588" y1="0" x2="37.0588" y2="98.8235" gradientUnits="userSpaceOnUse">
<stop stop-color="#3A86FF" stop-opacity="0.5"/>
<stop offset="1" stop-color="#6C63FF" stop-opacity="0.5"/>
</linearGradient>
<linearGradient id="paint1_linear_260_317" x1="37.0589" y1="38.8237" x2="37.0589" y2="42.3531" gradientUnits="userSpaceOnUse">
<stop stop-color="#3A86FF" stop-opacity="0.5"/>
<stop offset="1" stop-color="#6C63FF" stop-opacity="0.5"/>
</linearGradient>
<linearGradient id="paint2_linear_260_317" x1="37.0589" y1="52.9414" x2="37.0589" y2="56.4708" gradientUnits="userSpaceOnUse">
<stop stop-color="#3A86FF" stop-opacity="0.5"/>
<stop offset="1" stop-color="#6C63FF" stop-opacity="0.5"/>
</linearGradient>
<linearGradient id="paint3_linear_260_317" x1="24.7059" y1="24.7061" x2="24.7059" y2="28.2355" gradientUnits="userSpaceOnUse">
<stop stop-color="#3A86FF" stop-opacity="0.5"/>
<stop offset="1" stop-color="#6C63FF" stop-opacity="0.5"/>
</linearGradient>
<linearGradient id="paint4_linear_260_317" x1="37.0589" y1="67.0586" x2="37.0589" y2="70.588" gradientUnits="userSpaceOnUse">
<stop stop-color="#3A86FF" stop-opacity="0.5"/>
<stop offset="1" stop-color="#6C63FF" stop-opacity="0.5"/>
</linearGradient>
<linearGradient id="paint5_linear_260_317" x1="37.0589" y1="81.1763" x2="37.0589" y2="84.7057" gradientUnits="userSpaceOnUse">
<stop stop-color="#3A86FF" stop-opacity="0.5"/>
<stop offset="1" stop-color="#6C63FF" stop-opacity="0.5"/>
</linearGradient>
<linearGradient id="paint6_linear_260_317" x1="82.9411" y1="14.1177" x2="82.9411" y2="112.941" gradientUnits="userSpaceOnUse">
<stop stop-color="#3A86FF" stop-opacity="0.5"/>
<stop offset="1" stop-color="#6C63FF" stop-opacity="0.5"/>
</linearGradient>
<linearGradient id="paint7_linear_260_317" x1="93.5295" y1="52.9414" x2="93.5295" y2="56.4708" gradientUnits="userSpaceOnUse">
<stop stop-color="#3A86FF" stop-opacity="0.5"/>
<stop offset="1" stop-color="#6C63FF" stop-opacity="0.5"/>
</linearGradient>
<linearGradient id="paint8_linear_260_317" x1="93.5295" y1="67.0586" x2="93.5295" y2="70.588" gradientUnits="userSpaceOnUse">
<stop stop-color="#3A86FF" stop-opacity="0.5"/>
<stop offset="1" stop-color="#6C63FF" stop-opacity="0.5"/>
</linearGradient>
<linearGradient id="paint9_linear_260_317" x1="93.5295" y1="81.1763" x2="93.5295" y2="84.7057" gradientUnits="userSpaceOnUse">
<stop stop-color="#3A86FF" stop-opacity="0.5"/>
<stop offset="1" stop-color="#6C63FF" stop-opacity="0.5"/>
</linearGradient>
<linearGradient id="paint10_linear_260_317" x1="93.5295" y1="95.2939" x2="93.5295" y2="98.8234" gradientUnits="userSpaceOnUse">
<stop stop-color="#3A86FF" stop-opacity="0.5"/>
<stop offset="1" stop-color="#6C63FF" stop-opacity="0.5"/>
</linearGradient>
</defs>
</svg>
