<svg width="1346" height="1268" viewBox="0 0 1346 1268" fill="none" xmlns="http://www.w3.org/2000/svg">
<g filter="url(#filter0_d_272_52)">
<rect x="306.534" y="180.518" width="900" height="741" rx="24" transform="rotate(11.5501 306.534 180.518)" fill="white"/>
<rect x="306.924" y="181.108" width="899" height="740" rx="23.5" transform="rotate(11.5501 306.924 181.108)" stroke="#D7D7D7"/>
</g>
<path d="M399.968 258.639C400.404 256.507 401.286 254.695 402.614 253.203C403.963 251.715 405.581 250.674 407.466 250.079C409.376 249.468 411.345 249.369 413.373 249.784C415.693 250.258 417.634 251.253 419.197 252.77C420.784 254.271 421.772 256.149 422.16 258.406L417.865 257.528C417.536 256.263 416.927 255.246 416.039 254.477C415.151 253.707 414.049 253.188 412.732 252.919C411.29 252.624 409.938 252.686 408.677 253.103C407.416 253.52 406.338 254.269 405.442 255.349C404.567 256.433 403.965 257.779 403.636 259.389C403.307 260.998 403.333 262.473 403.712 263.814C404.112 265.158 404.808 266.28 405.8 267.18C406.796 268.058 408.016 268.645 409.458 268.94C410.775 269.209 411.992 269.164 413.111 268.805C414.229 268.445 415.188 267.748 415.988 266.714L420.283 267.592C419.041 269.516 417.395 270.856 415.346 271.613C413.318 272.374 411.144 272.518 408.824 272.044C406.775 271.625 405.001 270.773 403.5 269.486C402.003 268.179 400.926 266.576 400.269 264.678C399.633 262.784 399.532 260.771 399.968 258.639ZM430.608 276.594C428.977 276.26 427.579 275.593 426.411 274.593C425.248 273.571 424.427 272.315 423.948 270.823C423.473 269.311 423.417 267.666 423.781 265.89C424.139 264.134 424.844 262.656 425.895 261.455C426.946 260.255 428.215 259.426 429.703 258.967C431.19 258.509 432.759 258.449 434.41 258.786C436.061 259.124 437.481 259.795 438.669 260.8C439.857 261.805 440.699 263.066 441.195 264.582C441.691 266.099 441.759 267.735 441.4 269.491C441.042 271.246 440.326 272.722 439.254 273.919C438.182 275.115 436.88 275.948 435.347 276.419C433.838 276.873 432.259 276.931 430.608 276.594ZM431.242 273.49C432.162 273.678 433.063 273.633 433.947 273.357C434.852 273.084 435.645 272.561 436.326 271.785C437.007 271.01 437.476 269.995 437.732 268.741C437.988 267.487 437.964 266.382 437.658 265.427C437.357 264.451 436.854 263.662 436.149 263.061C435.445 262.46 434.633 262.065 433.713 261.877C432.793 261.689 431.892 261.734 431.008 262.01C430.145 262.291 429.393 262.824 428.754 263.608C428.119 264.37 427.674 265.379 427.417 266.633C427.037 268.493 427.213 270.032 427.944 271.248C428.7 272.448 429.8 273.195 431.242 273.49ZM467.665 265.582C469.024 265.86 470.178 266.39 471.129 267.172C472.1 267.959 472.776 268.968 473.156 270.199C473.556 271.435 473.597 272.837 473.276 274.405L471.194 284.594L467.651 283.87L469.625 274.214C469.941 272.667 469.795 271.407 469.189 270.434C468.586 269.44 467.616 268.806 466.278 268.532C464.941 268.259 463.789 268.459 462.824 269.133C461.884 269.79 461.256 270.892 460.94 272.439L458.967 282.095L455.424 281.371L457.397 271.715C457.713 270.168 457.568 268.908 456.961 267.935C456.359 266.941 455.389 266.307 454.051 266.034C452.713 265.76 451.562 265.96 450.597 266.634C449.657 267.291 449.029 268.393 448.713 269.94L446.739 279.596L443.165 278.866L446.696 261.591L450.27 262.321L449.866 264.297C450.596 263.706 451.452 263.303 452.432 263.09C453.412 262.876 454.414 262.874 455.438 263.084C456.817 263.366 457.991 263.91 458.958 264.718C459.925 265.525 460.588 266.542 460.947 267.77C461.683 266.831 462.667 266.172 463.899 265.793C465.135 265.392 466.39 265.322 467.665 265.582ZM482.327 271.518C483.096 270.848 484.058 270.348 485.214 270.018C486.37 269.688 487.607 269.658 488.924 269.927C490.429 270.234 491.721 270.89 492.8 271.895C493.905 272.883 494.676 274.118 495.113 275.601C495.55 277.084 495.591 278.693 495.237 280.428C494.882 282.162 494.209 283.647 493.216 284.881C492.228 286.095 491.028 286.96 489.616 287.477C488.229 287.977 486.783 288.074 485.278 287.766C483.961 287.497 482.844 286.997 481.927 286.265C481.014 285.512 480.314 284.672 479.829 283.746L477.637 294.468L474.063 293.738L479.272 268.248L482.846 268.979L482.327 271.518ZM491.6 279.684C491.844 278.493 491.802 277.418 491.476 276.458C491.174 275.482 490.661 274.691 489.935 274.086C489.235 273.464 488.425 273.058 487.506 272.871C486.607 272.687 485.703 272.742 484.794 273.035C483.905 273.332 483.121 273.869 482.44 274.644C481.78 275.424 481.328 276.409 481.084 277.601C480.841 278.792 480.868 279.886 481.165 280.883C481.487 281.864 481.998 282.665 482.699 283.287C483.42 283.913 484.23 284.318 485.128 284.502C486.048 284.69 486.952 284.635 487.84 284.338C488.754 284.024 489.543 283.466 490.207 282.666C490.892 281.87 491.357 280.876 491.6 279.684ZM497.58 280.906C497.935 279.172 498.604 277.708 499.588 276.516C500.593 275.327 501.787 274.494 503.169 274.014C504.577 273.518 506.033 273.424 507.538 273.731C508.897 274.009 510.022 274.522 510.915 275.27C511.832 276.002 512.513 276.827 512.956 277.745L513.469 275.237L517.074 275.974L513.544 293.249L509.939 292.512L510.464 289.941C509.691 290.632 508.727 291.143 507.571 291.473C506.415 291.803 505.168 291.831 503.83 291.558C502.346 291.254 501.064 290.6 499.985 289.596C498.91 288.571 498.145 287.304 497.691 285.796C497.263 284.271 497.225 282.641 497.58 280.906ZM511.707 283.859C511.95 282.667 511.911 281.582 511.589 280.601C511.287 279.625 510.787 278.826 510.086 278.204C509.386 277.582 508.576 277.177 507.657 276.989C506.737 276.801 505.833 276.856 504.945 277.153C504.061 277.43 503.278 277.956 502.597 278.731C501.941 279.49 501.492 280.465 501.248 281.656C501.005 282.847 501.032 283.942 501.329 284.939C501.647 285.94 502.154 286.762 502.85 287.405C503.571 288.032 504.381 288.437 505.279 288.62C506.199 288.808 507.103 288.753 507.991 288.456C508.879 288.158 509.654 287.62 510.314 286.84C510.999 286.044 511.463 285.05 511.707 283.859ZM530.542 278.432C531.901 278.71 533.056 279.24 534.006 280.022C534.978 280.808 535.653 281.817 536.033 283.049C536.413 284.281 536.443 285.68 536.122 287.248L534.04 297.437L530.497 296.713L532.471 287.057C532.787 285.51 532.641 284.25 532.035 283.277C531.432 282.283 530.462 281.649 529.124 281.376C527.787 281.103 526.635 281.303 525.67 281.976C524.73 282.634 524.102 283.735 523.786 285.282L521.813 294.939L518.239 294.208L521.769 276.933L525.343 277.664L524.939 279.639C525.67 279.048 526.525 278.646 527.505 278.432C528.506 278.223 529.518 278.223 530.542 278.432ZM557.68 284.272L541.893 307.502L538.194 306.746L543.422 299.061L540.091 280.678L544.073 281.491L546.242 295.652L553.98 283.516L557.68 284.272ZM573.018 282.703L568.565 304.493L564.991 303.763L569.444 281.973L573.018 282.703ZM585.561 289.676C586.92 289.954 588.075 290.484 589.025 291.266C589.997 292.052 590.673 293.061 591.052 294.293C591.432 295.525 591.462 296.924 591.141 298.492L589.059 308.681L585.516 307.957L587.49 298.301C587.806 296.754 587.66 295.494 587.054 294.521C586.451 293.527 585.481 292.893 584.143 292.62C582.806 292.346 581.654 292.547 580.689 293.22C579.749 293.877 579.121 294.979 578.805 296.526L576.832 306.182L573.258 305.452L576.788 288.177L580.362 288.907L579.958 290.883C580.689 290.292 581.544 289.889 582.524 289.676C583.525 289.467 584.537 289.467 585.561 289.676ZM603.795 296.734L600.597 296.08L597.662 310.439L594.057 309.703L596.991 295.343L594.954 294.927L595.549 292.011L597.587 292.428L597.837 291.205C598.243 289.219 599.06 287.884 600.289 287.199C601.543 286.497 603.299 286.377 605.556 286.838L604.947 289.816C603.86 289.594 603.055 289.647 602.53 289.976C602.01 290.283 601.648 290.939 601.443 291.942L601.193 293.165L604.391 293.818L603.795 296.734ZM611.463 313.554C609.833 313.221 608.434 312.554 607.267 311.553C606.104 310.532 605.283 309.275 604.804 307.784C604.329 306.271 604.273 304.627 604.636 302.85C604.995 301.094 605.7 299.616 606.751 298.416C607.802 297.215 609.071 296.386 610.558 295.928C612.045 295.469 613.615 295.409 615.266 295.747C616.917 296.084 618.337 296.755 619.525 297.76C620.713 298.765 621.555 300.026 622.051 301.542C622.546 303.059 622.615 304.695 622.256 306.451C621.897 308.207 621.182 309.683 620.11 310.879C619.038 312.075 617.736 312.909 616.202 313.379C614.694 313.833 613.115 313.891 611.463 313.554ZM612.098 310.45C613.017 310.638 613.919 310.594 614.803 310.317C615.708 310.045 616.501 309.521 617.182 308.745C617.863 307.97 618.332 306.955 618.588 305.701C618.844 304.447 618.82 303.343 618.514 302.387C618.213 301.411 617.71 300.623 617.005 300.021C616.301 299.42 615.488 299.026 614.569 298.838C613.649 298.65 612.747 298.694 611.863 298.971C611 299.251 610.249 299.784 609.61 300.568C608.975 301.331 608.529 302.339 608.273 303.593C607.893 305.454 608.068 306.992 608.8 308.208C609.556 309.408 610.655 310.155 612.098 310.45Z" fill="#575757"/>
<g clip-path="url(#clip0_272_52)">
<path d="M352.998 237.219L347.216 265.509L362.647 268.663L368.429 240.373L352.998 237.219ZM352.237 234.384L370.24 238.064C370.581 238.133 370.881 238.336 371.073 238.626C371.264 238.916 371.333 239.271 371.263 239.612L364.956 270.474C364.887 270.815 364.684 271.115 364.394 271.307C364.103 271.499 363.749 271.567 363.408 271.497L345.405 267.818C345.064 267.749 344.764 267.546 344.572 267.256C344.38 266.965 344.312 266.611 344.382 266.27L350.689 235.408C350.758 235.066 350.961 234.767 351.251 234.575C351.542 234.383 351.896 234.315 352.237 234.384Z" fill="#4567FF"/>
<path d="M354.518 242.888L364.806 244.991L364.28 247.562L353.993 245.46L354.518 242.888ZM352.941 250.604L363.229 252.706L362.703 255.278L352.416 253.176L352.941 250.604ZM351.365 258.319L361.652 260.422L361.127 262.994L350.839 260.891L351.365 258.319ZM367.847 256.329L372.991 257.38L372.465 259.952L367.321 258.901L367.847 256.329ZM366.796 261.473L371.939 262.524L371.414 265.096L366.27 264.045L366.796 261.473ZM342.072 264.458L378.078 271.816L377.553 274.388L341.547 267.03L342.072 264.458Z" fill="#4567FF"/>
<path d="M368.898 251.185L365.219 269.188L372.934 270.765L376.614 252.762L368.898 251.185ZM368.138 248.351L378.425 250.453C378.766 250.523 379.066 250.725 379.257 251.016C379.449 251.306 379.518 251.661 379.448 252.002L375.244 272.577C375.174 272.918 374.971 273.217 374.681 273.409C374.391 273.601 374.036 273.669 373.695 273.6L363.407 271.497C363.066 271.428 362.767 271.225 362.575 270.935C362.383 270.644 362.315 270.29 362.384 269.949L366.589 249.374C366.659 249.033 366.861 248.733 367.151 248.541C367.442 248.35 367.797 248.281 368.138 248.351Z" fill="#4567FF"/>
</g>
<rect x="231.669" y="830.971" width="22" height="22" rx="3" transform="rotate(11.5501 231.669 830.971)" fill="white" stroke="#C1C1C1" stroke-width="2"/>
<rect x="327.911" y="328.324" width="799" height="47" rx="7.5" transform="rotate(11.5501 327.911 328.324)" fill="white" stroke="#C1C1C1"/>
<path d="M332.897 309.864C333.114 308.798 333.55 307.891 334.204 307.143C334.86 306.384 335.65 305.849 336.573 305.537C337.508 305.227 338.482 305.176 339.496 305.383C340.687 305.626 341.668 306.126 342.439 306.883C343.21 307.639 343.691 308.586 343.883 309.725L342.174 309.376C342.006 308.656 341.67 308.059 341.168 307.586C340.676 307.116 340.033 306.799 339.239 306.637C338.476 306.481 337.755 306.519 337.077 306.75C336.398 306.982 335.819 307.391 335.339 307.979C334.862 308.557 334.534 309.284 334.354 310.162C334.177 311.03 334.194 311.828 334.404 312.557C334.616 313.275 334.989 313.874 335.523 314.353C336.057 314.832 336.705 315.15 337.468 315.306C338.262 315.468 338.976 315.434 339.611 315.205C340.259 314.967 340.801 314.55 341.239 313.953L342.947 314.303C342.326 315.264 341.513 315.942 340.507 316.335C339.503 316.718 338.406 316.788 337.215 316.544C336.201 316.337 335.324 315.913 334.584 315.272C333.857 314.622 333.339 313.825 333.031 312.88C332.724 311.936 332.679 310.93 332.897 309.864ZM348.138 318.826C347.334 318.661 346.639 318.329 346.056 317.828C345.483 317.33 345.076 316.708 344.837 315.963C344.61 315.208 344.587 314.387 344.769 313.499C344.948 312.621 345.294 311.886 345.807 311.294C346.333 310.694 346.961 310.284 347.692 310.063C348.425 309.832 349.199 309.799 350.014 309.966C350.829 310.132 351.529 310.466 352.112 310.966C352.698 311.456 353.111 312.074 353.35 312.82C353.6 313.567 353.635 314.386 353.453 315.274C353.272 316.162 352.913 316.905 352.377 317.503C351.854 318.093 351.22 318.503 350.476 318.732C349.733 318.961 348.953 318.992 348.138 318.826ZM348.395 317.572C348.907 317.676 349.412 317.654 349.91 317.506C350.409 317.357 350.843 317.07 351.213 316.645C351.594 316.222 351.854 315.666 351.995 314.976C352.136 314.286 352.12 313.673 351.946 313.137C351.773 312.601 351.49 312.173 351.098 311.853C350.709 311.523 350.258 311.306 349.746 311.201C349.223 311.094 348.718 311.116 348.23 311.267C347.754 311.409 347.337 311.694 346.977 312.121C346.618 312.549 346.367 313.107 346.226 313.797C346.083 314.497 346.088 315.113 346.241 315.645C346.404 316.179 346.675 316.61 347.054 316.938C347.436 317.256 347.883 317.467 348.395 317.572ZM366.566 313.332C367.235 313.469 367.802 313.731 368.266 314.12C368.733 314.499 369.062 314.996 369.252 315.612C369.442 316.228 369.455 316.933 369.293 317.727L368.258 322.79L366.847 322.502L367.841 317.643C368.016 316.786 367.935 316.089 367.598 315.552C367.274 315.006 366.752 314.66 366.031 314.513C365.289 314.361 364.649 314.481 364.112 314.872C363.577 315.252 363.217 315.892 363.034 316.791L362.066 321.525L360.655 321.237L361.649 316.377C361.824 315.52 361.743 314.823 361.406 314.286C361.082 313.741 360.56 313.395 359.839 313.247C359.097 313.096 358.457 313.215 357.92 313.606C357.385 313.987 357.025 314.627 356.842 315.525L355.874 320.26L354.448 319.968L356.203 311.378L357.63 311.669L357.377 312.908C357.751 312.516 358.197 312.248 358.717 312.104C359.247 311.961 359.799 311.949 360.374 312.067C361.095 312.214 361.699 312.506 362.187 312.943C362.675 313.381 362.99 313.94 363.134 314.623C363.498 314.066 363.991 313.677 364.614 313.456C365.236 313.234 365.887 313.193 366.566 313.332ZM373.457 316.553C373.839 316.119 374.341 315.797 374.961 315.587C375.593 315.367 376.281 315.334 377.023 315.485C377.786 315.641 378.438 315.965 378.98 316.457C379.532 316.951 379.918 317.568 380.136 318.31C380.357 319.041 380.378 319.845 380.198 320.723C380.021 321.591 379.685 322.328 379.191 322.934C378.697 323.541 378.098 323.968 377.394 324.216C376.701 324.467 375.972 324.514 375.21 324.358C374.478 324.208 373.863 323.914 373.365 323.475C372.879 323.027 372.541 322.528 372.348 321.977L371.192 327.636L369.765 327.344L372.354 314.678L373.78 314.97L373.457 316.553ZM378.74 320.425C378.873 319.777 378.858 319.186 378.695 318.652C378.532 318.118 378.251 317.68 377.853 317.337C377.465 316.997 377.005 316.772 376.472 316.663C375.949 316.556 375.437 316.587 374.934 316.757C374.444 316.918 374.013 317.216 373.64 317.652C373.281 318.079 373.036 318.612 372.906 319.249C372.773 319.897 372.788 320.493 372.949 321.038C373.122 321.574 373.401 322.018 373.787 322.369C374.185 322.711 374.645 322.936 375.168 323.043C375.701 323.152 376.213 323.126 376.703 322.965C377.206 322.795 377.637 322.497 377.996 322.07C378.358 321.632 378.606 321.084 378.74 320.425ZM381.543 320.998C381.722 320.12 382.057 319.388 382.547 318.803C383.039 318.206 383.631 317.788 384.322 317.549C385.024 317.311 385.756 317.27 386.519 317.426C387.271 317.58 387.892 317.875 388.379 318.312C388.867 318.75 389.196 319.242 389.368 319.788L389.688 318.221L391.13 318.515L389.375 327.106L387.933 326.811L388.259 325.212C387.875 325.656 387.366 325.988 386.733 326.207C386.113 326.417 385.432 326.447 384.69 326.295C383.927 326.14 383.276 325.81 382.736 325.308C382.196 324.806 381.818 324.179 381.602 323.427C381.385 322.675 381.366 321.865 381.543 320.998ZM388.814 322.5C388.946 321.852 388.931 321.261 388.768 320.727C388.605 320.193 388.324 319.755 387.926 319.412C387.54 319.061 387.081 318.831 386.548 318.722C386.015 318.613 385.504 318.639 385.013 318.8C384.523 318.961 384.098 319.256 383.739 319.683C383.379 320.11 383.133 320.648 383.001 321.296C382.866 321.954 382.88 322.556 383.04 323.1C383.203 323.635 383.478 324.077 383.863 324.428C384.251 324.769 384.711 324.993 385.244 325.102C385.777 325.211 386.289 325.185 386.779 325.024C387.282 324.854 387.713 324.556 388.072 324.129C388.434 323.691 388.681 323.148 388.814 322.5ZM397.758 319.707C398.804 319.92 399.585 320.412 400.103 321.182C400.622 321.941 400.761 322.917 400.517 324.108L399.482 329.171L398.071 328.883L399.065 324.024C399.24 323.167 399.159 322.47 398.822 321.933C398.488 321.385 397.95 321.036 397.208 320.884C396.455 320.73 395.806 320.843 395.261 321.221C394.726 321.602 394.366 322.241 394.183 323.14L393.212 327.89L391.785 327.598L393.541 319.008L394.967 319.3L394.718 320.522C395.089 320.141 395.54 319.879 396.07 319.737C396.61 319.597 397.173 319.587 397.758 319.707ZM410.967 322.569L403.212 334.147L401.738 333.846L404.277 330.053L402.549 320.849L404.132 321.173L405.406 328.684L409.494 322.268L410.967 322.569ZM423.415 334.062L421.989 333.771L418.029 323.898L416.251 332.598L414.825 332.307L417.061 321.365L418.487 321.657L422.45 331.514L424.225 322.829L425.651 323.121L423.415 334.062ZM426.198 330.124C426.378 329.246 426.712 328.514 427.202 327.928C427.694 327.332 428.286 326.914 428.977 326.674C429.679 326.437 430.411 326.396 431.174 326.552C431.927 326.706 432.547 327.001 433.034 327.438C433.522 327.875 433.852 328.367 434.023 328.914L434.343 327.347L435.785 327.641L434.03 336.232L432.588 335.937L432.914 334.338C432.53 334.782 432.021 335.113 431.388 335.333C430.768 335.543 430.087 335.573 429.345 335.421C428.582 335.265 427.931 334.936 427.391 334.434C426.852 333.932 426.474 333.305 426.257 332.553C426.041 331.801 426.021 330.991 426.198 330.124ZM433.469 331.626C433.601 330.978 433.586 330.387 433.423 329.853C433.26 329.319 432.979 328.88 432.581 328.538C432.196 328.187 431.736 327.957 431.203 327.848C430.67 327.739 430.159 327.765 429.669 327.926C429.178 328.087 428.753 328.382 428.394 328.809C428.034 329.236 427.788 329.774 427.656 330.422C427.522 331.08 427.535 331.682 427.696 332.226C427.859 332.76 428.133 333.203 428.518 333.554C428.906 333.894 429.366 334.119 429.899 334.228C430.432 334.337 430.944 334.311 431.434 334.15C431.937 333.98 432.368 333.682 432.728 333.255C433.089 332.817 433.336 332.274 433.469 331.626ZM448.559 330.088C449.227 330.225 449.794 330.488 450.259 330.877C450.726 331.255 451.055 331.752 451.245 332.368C451.434 332.984 451.448 333.689 451.286 334.483L450.251 339.547L448.84 339.258L449.833 334.399C450.009 333.542 449.928 332.845 449.591 332.308C449.267 331.763 448.744 331.416 448.023 331.269C447.281 331.117 446.642 331.237 446.105 331.628C445.57 332.009 445.21 332.648 445.027 333.547L444.059 338.281L442.648 337.993L443.641 333.133C443.816 332.276 443.736 331.579 443.399 331.043C443.075 330.497 442.552 330.151 441.831 330.004C441.089 329.852 440.45 329.972 439.913 330.363C439.378 330.743 439.018 331.383 438.835 332.282L437.867 337.016L436.441 336.724L438.196 328.134L439.623 328.425L439.37 329.664C439.744 329.272 440.19 329.004 440.71 328.86C441.24 328.718 441.792 328.705 442.367 328.823C443.088 328.97 443.692 329.263 444.18 329.7C444.667 330.137 444.983 330.697 445.127 331.379C445.491 330.822 445.984 330.433 446.606 330.212C447.229 329.991 447.879 329.949 448.559 330.088ZM461.374 337.002C461.319 337.274 461.244 337.558 461.151 337.855L454.285 336.452C454.164 337.309 454.316 338.031 454.74 338.619C455.177 339.198 455.772 339.564 456.524 339.718C457.141 339.844 457.682 339.808 458.147 339.609C458.625 339.402 458.996 339.075 459.262 338.628L460.798 338.942C460.399 339.721 459.802 340.301 459.005 340.683C458.211 341.054 457.302 341.135 456.277 340.925C455.462 340.759 454.768 340.426 454.195 339.928C453.632 339.432 453.236 338.812 453.007 338.069C452.78 337.315 452.758 336.493 452.939 335.605C453.121 334.717 453.457 333.975 453.949 333.378C454.441 332.782 455.042 332.371 455.753 332.146C456.475 331.913 457.255 331.882 458.091 332.053C458.906 332.219 459.591 332.544 460.145 333.028C460.7 333.511 461.08 334.101 461.286 334.796C461.505 335.483 461.534 336.218 461.374 337.002ZM459.961 336.403C460.073 335.86 460.047 335.37 459.886 334.934C459.727 334.488 459.459 334.123 459.081 333.839C458.716 333.547 458.283 333.349 457.781 333.247C457.06 333.1 456.397 333.203 455.791 333.559C455.195 333.916 454.777 334.495 454.538 335.295L459.961 336.403Z" fill="#575757"/>
<rect x="307.288" y="429.239" width="369" height="47" rx="7.5" transform="rotate(11.5501 307.288 429.239)" fill="white" stroke="#C1C1C1"/>
<path d="M311.294 410.579C311.512 409.513 311.947 408.606 312.601 407.858C313.257 407.099 314.047 406.564 314.971 406.252C315.905 405.942 316.879 405.891 317.893 406.098C319.084 406.341 320.065 406.841 320.836 407.597C321.607 408.354 322.088 409.301 322.28 410.44L320.571 410.091C320.403 409.371 320.068 408.774 319.565 408.301C319.074 407.831 318.431 407.514 317.636 407.352C316.874 407.196 316.153 407.234 315.474 407.465C314.795 407.697 314.216 408.106 313.737 408.694C313.259 409.272 312.931 409.999 312.752 410.877C312.574 411.745 312.591 412.543 312.801 413.272C313.014 413.99 313.387 414.589 313.92 415.068C314.454 415.547 315.102 415.865 315.865 416.021C316.659 416.183 317.374 416.149 318.008 415.92C318.656 415.682 319.198 415.265 319.636 414.668L321.345 415.017C320.724 415.979 319.91 416.657 318.904 417.05C317.901 417.433 316.803 417.502 315.612 417.259C314.598 417.052 313.721 416.628 312.981 415.987C312.254 415.337 311.736 414.54 311.429 413.595C311.121 412.651 311.076 411.645 311.294 410.579ZM323.169 414.198C323.348 413.32 323.683 412.589 324.173 412.003C324.665 411.407 325.257 410.989 325.948 410.749C326.65 410.511 327.382 410.47 328.145 410.626C328.897 410.78 329.518 411.075 330.005 411.513C330.493 411.95 330.822 412.442 330.994 412.988L331.314 411.421L332.756 411.716L331.001 420.306L329.558 420.011L329.885 418.412C329.501 418.856 328.992 419.188 328.359 419.407C327.739 419.618 327.058 419.647 326.316 419.496C325.553 419.34 324.902 419.011 324.362 418.508C323.822 418.006 323.444 417.379 323.228 416.627C323.011 415.875 322.992 415.066 323.169 414.198ZM330.439 415.7C330.572 415.052 330.557 414.461 330.394 413.927C330.231 413.393 329.95 412.955 329.552 412.612C329.166 412.261 328.707 412.031 328.174 411.922C327.641 411.813 327.13 411.839 326.639 412.001C326.149 412.162 325.724 412.456 325.365 412.883C325.005 413.311 324.759 413.848 324.627 414.496C324.492 415.155 324.506 415.756 324.666 416.301C324.829 416.835 325.104 417.277 325.489 417.628C325.877 417.969 326.337 418.193 326.87 418.302C327.403 418.411 327.915 418.385 328.405 418.224C328.908 418.055 329.339 417.756 329.698 417.329C330.06 416.891 330.307 416.348 330.439 415.7ZM338.739 412.791C339.481 412.943 340.095 413.237 340.583 413.674C341.081 414.114 341.416 414.607 341.587 415.153L341.908 413.586L343.35 413.88L341.556 422.659C341.396 423.443 341.086 424.104 340.628 424.641C340.168 425.19 339.589 425.572 338.891 425.789C338.204 426.008 337.448 426.033 336.622 425.864C335.493 425.633 334.607 425.175 333.964 424.488C333.32 423.801 333.025 422.984 333.077 422.037L334.488 422.325C334.538 422.88 334.776 423.364 335.203 423.778C335.628 424.202 336.185 424.485 336.875 424.626C337.659 424.786 338.347 424.671 338.938 424.28C339.54 423.891 339.932 423.253 340.114 422.364L340.482 420.562C340.097 421.006 339.594 421.338 338.972 421.559C338.349 421.781 337.667 421.815 336.925 421.664C336.162 421.508 335.506 421.178 334.956 420.673C334.416 420.171 334.038 419.544 333.821 418.792C333.605 418.04 333.585 417.231 333.763 416.363C333.942 415.485 334.277 414.753 334.766 414.168C335.258 413.571 335.85 413.153 336.542 412.914C337.243 412.676 337.976 412.635 338.739 412.791ZM341.033 417.865C341.165 417.217 341.15 416.626 340.987 416.092C340.824 415.558 340.544 415.12 340.145 414.777C339.76 414.426 339.301 414.196 338.768 414.087C338.235 413.978 337.723 414.004 337.233 414.165C336.743 414.327 336.318 414.621 335.958 415.048C335.599 415.475 335.353 416.013 335.22 416.661C335.086 417.319 335.099 417.921 335.26 418.466C335.423 419 335.697 419.442 336.083 419.793C336.47 420.134 336.931 420.358 337.464 420.467C337.997 420.576 338.508 420.55 338.999 420.389C339.501 420.22 339.932 419.921 340.292 419.494C340.654 419.056 340.901 418.513 341.033 417.865ZM352.788 419.941C352.732 420.213 352.658 420.497 352.565 420.793L345.699 419.39C345.578 420.248 345.73 420.97 346.154 421.557C346.591 422.137 347.186 422.503 347.938 422.657C348.555 422.783 349.095 422.746 349.561 422.548C350.039 422.34 350.41 422.013 350.676 421.567L352.212 421.881C351.813 422.659 351.216 423.24 350.419 423.621C349.625 423.992 348.715 424.073 347.691 423.864C346.876 423.697 346.182 423.365 345.609 422.867C345.046 422.371 344.65 421.751 344.421 421.007C344.194 420.253 344.171 419.432 344.353 418.544C344.534 417.655 344.871 416.913 345.363 416.317C345.855 415.721 346.456 415.31 347.166 415.085C347.889 414.852 348.668 414.82 349.505 414.991C350.32 415.158 351.004 415.483 351.559 415.966C352.113 416.45 352.494 417.039 352.7 417.735C352.919 418.422 352.948 419.157 352.788 419.941ZM351.375 419.342C351.486 418.799 351.461 418.309 351.3 417.873C351.141 417.427 350.872 417.062 350.495 416.778C350.13 416.485 349.697 416.288 349.195 416.186C348.474 416.038 347.81 416.142 347.204 416.497C346.609 416.855 346.191 417.433 345.951 418.233L351.375 419.342ZM358.49 420.224C358.708 419.158 359.144 418.251 359.798 417.503C360.453 416.744 361.243 416.209 362.167 415.897C363.101 415.587 364.075 415.536 365.089 415.743C366.28 415.986 367.262 416.486 368.032 417.243C368.803 417.999 369.285 418.946 369.476 420.085L367.768 419.736C367.599 419.016 367.264 418.419 366.762 417.946C366.27 417.476 365.627 417.159 364.833 416.997C364.07 416.841 363.349 416.879 362.67 417.11C361.992 417.342 361.413 417.751 360.933 418.339C360.456 418.917 360.127 419.644 359.948 420.522C359.771 421.39 359.787 422.188 359.998 422.917C360.21 423.635 360.583 424.234 361.117 424.713C361.65 425.192 362.298 425.51 363.061 425.666C363.855 425.828 364.57 425.795 365.205 425.565C365.852 425.327 366.395 424.91 366.832 424.314L368.541 424.663C367.92 425.624 367.106 426.302 366.101 426.695C365.097 427.078 364 427.148 362.808 426.904C361.794 426.697 360.918 426.273 360.178 425.632C359.45 424.982 358.933 424.185 358.625 423.24C358.317 422.296 358.272 421.29 358.49 420.224ZM373.732 429.186C372.927 429.021 372.233 428.689 371.649 428.188C371.076 427.69 370.67 427.068 370.43 426.323C370.203 425.569 370.181 424.747 370.362 423.859C370.542 422.981 370.888 422.246 371.401 421.654C371.926 421.054 372.554 420.644 373.285 420.423C374.019 420.192 374.793 420.159 375.608 420.326C376.423 420.492 377.122 420.826 377.706 421.326C378.292 421.816 378.704 422.434 378.944 423.18C379.194 423.927 379.228 424.746 379.047 425.634C378.865 426.522 378.506 427.265 377.97 427.864C377.447 428.453 376.814 428.863 376.07 429.092C375.326 429.321 374.547 429.352 373.732 429.186ZM373.988 427.932C374.5 428.036 375.006 428.014 375.504 427.866C376.003 427.717 376.437 427.43 376.807 427.005C377.187 426.582 377.448 426.026 377.589 425.336C377.73 424.646 377.714 424.033 377.54 423.497C377.367 422.961 377.084 422.533 376.692 422.213C376.302 421.883 375.851 421.666 375.339 421.561C374.817 421.454 374.311 421.476 373.823 421.627C373.348 421.769 372.93 422.054 372.571 422.481C372.211 422.909 371.961 423.467 371.82 424.157C371.677 424.857 371.682 425.473 371.834 426.005C371.997 426.539 372.269 426.97 372.648 427.298C373.029 427.616 373.476 427.827 373.988 427.932ZM380.393 425.893C380.572 425.015 380.907 424.283 381.396 423.697C381.888 423.101 382.48 422.683 383.171 422.443C383.873 422.205 384.611 422.166 385.384 422.324C386.053 422.46 386.643 422.744 387.154 423.175C387.666 423.596 388.023 424.088 388.224 424.651L389.153 420.105L390.595 420.4L388.224 432L386.782 431.706L387.112 430.091C386.725 430.545 386.221 430.883 385.598 431.104C384.978 431.315 384.297 431.345 383.555 431.193C382.792 431.037 382.136 430.707 381.586 430.203C381.046 429.701 380.668 429.073 380.451 428.322C380.235 427.57 380.215 426.76 380.393 425.893ZM387.663 427.395C387.795 426.747 387.78 426.156 387.617 425.622C387.454 425.087 387.173 424.649 386.775 424.306C386.39 423.955 385.931 423.726 385.398 423.617C384.865 423.508 384.353 423.534 383.863 423.695C383.373 423.856 382.948 424.15 382.588 424.578C382.229 425.005 381.983 425.543 381.85 426.191C381.716 426.849 381.729 427.45 381.89 427.995C382.053 428.529 382.327 428.972 382.713 429.323C383.1 429.663 383.561 429.888 384.094 429.997C384.627 430.106 385.138 430.08 385.628 429.918C386.131 429.749 386.562 429.451 386.922 429.023C387.284 428.586 387.531 428.043 387.663 427.395ZM399.418 429.47C399.362 429.742 399.288 430.026 399.195 430.323L392.329 428.92C392.208 429.777 392.36 430.499 392.784 431.087C393.221 431.666 393.815 432.033 394.568 432.186C395.185 432.312 395.725 432.276 396.191 432.077C396.669 431.87 397.04 431.543 397.306 431.096L398.842 431.41C398.443 432.189 397.846 432.769 397.049 433.151C396.255 433.522 395.345 433.603 394.321 433.393C393.506 433.227 392.812 432.894 392.239 432.396C391.676 431.9 391.28 431.28 391.051 430.537C390.824 429.783 390.801 428.961 390.983 428.073C391.164 427.185 391.501 426.443 391.993 425.846C392.485 425.25 393.086 424.84 393.796 424.614C394.519 424.381 395.298 424.35 396.134 424.521C396.95 424.687 397.634 425.012 398.189 425.496C398.743 425.979 399.124 426.569 399.33 427.264C399.549 427.951 399.578 428.687 399.418 429.47ZM398.005 428.871C398.116 428.328 398.091 427.838 397.93 427.403C397.771 426.956 397.502 426.591 397.125 426.307C396.76 426.015 396.327 425.817 395.825 425.715C395.104 425.568 394.44 425.671 393.834 426.027C393.239 426.384 392.821 426.963 392.581 427.763L398.005 428.871Z" fill="#575757"/>
<rect x="728.581" y="515.334" width="369" height="47" rx="7.5" transform="rotate(11.5501 728.581 515.334)" fill="white" stroke="#C1C1C1"/>
<path d="M735.629 491.614L734.216 498.527C734.018 499.499 734.105 500.268 734.48 500.834C734.864 501.403 735.48 501.774 736.326 501.947C737.162 502.117 737.864 502.016 738.43 501.642C739.007 501.27 739.394 500.598 739.593 499.626L741.006 492.713L742.432 493.004L741.023 499.901C740.837 500.811 740.497 501.541 740.003 502.094C739.511 502.636 738.921 502.994 738.232 503.169C737.554 503.346 736.828 503.355 736.054 503.197C735.281 503.039 734.612 502.745 734.047 502.314C733.492 501.884 733.095 501.324 732.855 500.633C732.628 499.933 732.607 499.129 732.793 498.22L734.203 491.322L735.629 491.614ZM746.002 494.942L745.255 498.594L749.237 499.408L748.997 500.584L745.015 499.77L744.246 503.532L748.698 504.442L748.458 505.618L742.579 504.417L744.815 493.475L750.694 494.676L750.454 495.852L746.002 494.942ZM754.276 495.424L752.043 506.351L750.616 506.059L752.849 495.133L754.276 495.424Z" fill="#575757"/>
<path d="M292.712 511.33L291.299 518.243C291.101 519.215 291.189 519.984 291.563 520.551C291.947 521.119 292.563 521.49 293.41 521.663C294.246 521.834 294.947 521.732 295.513 521.358C296.09 520.986 296.478 520.314 296.676 519.342L298.089 512.429L299.516 512.72L298.106 519.618C297.92 520.527 297.58 521.258 297.086 521.81C296.595 522.352 296.004 522.71 295.315 522.885C294.637 523.062 293.911 523.072 293.138 522.914C292.364 522.756 291.695 522.461 291.13 522.03C290.575 521.601 290.178 521.041 289.938 520.349C289.711 519.65 289.69 518.845 289.876 517.936L291.286 511.038L292.712 511.33ZM302.521 517.417C302.904 516.984 303.405 516.662 304.025 516.451C304.658 516.232 305.345 516.198 306.087 516.35C306.85 516.505 307.502 516.829 308.044 517.321C308.596 517.815 308.982 518.433 309.2 519.174C309.421 519.905 309.442 520.71 309.262 521.587C309.085 522.455 308.75 523.192 308.255 523.799C307.761 524.405 307.162 524.833 306.458 525.081C305.765 525.331 305.037 525.378 304.274 525.222C303.542 525.073 302.927 524.778 302.429 524.339C301.944 523.891 301.605 523.392 301.413 522.841L300.256 528.5L298.83 528.209L301.418 515.542L302.845 515.834L302.521 517.417ZM307.805 521.29C307.937 520.642 307.922 520.051 307.759 519.516C307.596 518.982 307.315 518.544 306.917 518.201C306.529 517.861 306.069 517.636 305.536 517.527C305.013 517.42 304.501 517.452 303.998 517.621C303.508 517.782 303.077 518.081 302.705 518.516C302.345 518.944 302.1 519.476 301.97 520.113C301.838 520.761 301.852 521.358 302.013 521.902C302.186 522.439 302.466 522.882 302.851 523.233C303.249 523.576 303.71 523.8 304.232 523.907C304.765 524.016 305.277 523.99 305.767 523.829C306.27 523.66 306.701 523.361 307.06 522.934C307.422 522.496 307.67 521.948 307.805 521.29ZM314.053 514.989L311.683 526.589L310.256 526.298L312.627 514.698L314.053 514.989ZM317.831 527.993C317.027 527.828 316.333 527.496 315.749 526.996C315.176 526.498 314.769 525.876 314.53 525.13C314.303 524.376 314.28 523.555 314.462 522.666C314.641 521.788 314.987 521.054 315.5 520.462C316.026 519.861 316.654 519.451 317.385 519.23C318.118 518.999 318.892 518.967 319.707 519.133C320.523 519.3 321.222 519.633 321.806 520.133C322.391 520.623 322.804 521.241 323.044 521.987C323.294 522.735 323.328 523.553 323.146 524.441C322.965 525.329 322.606 526.073 322.07 526.671C321.547 527.261 320.913 527.67 320.17 527.899C319.426 528.128 318.647 528.159 317.831 527.993ZM318.088 526.739C318.6 526.843 319.105 526.822 319.604 526.673C320.102 526.524 320.536 526.238 320.906 525.812C321.287 525.389 321.547 524.833 321.688 524.143C321.829 523.453 321.813 522.84 321.64 522.304C321.466 521.768 321.183 521.34 320.791 521.02C320.402 520.69 319.951 520.473 319.439 520.368C318.916 520.262 318.411 520.283 317.923 520.434C317.447 520.576 317.03 520.861 316.67 521.289C316.311 521.716 316.061 522.275 315.92 522.964C315.777 523.664 315.781 524.281 315.934 524.813C316.097 525.347 316.368 525.778 316.747 526.106C317.129 526.423 317.576 526.634 318.088 526.739ZM324.492 524.7C324.671 523.822 325.006 523.09 325.496 522.504C325.988 521.908 326.58 521.49 327.271 521.25C327.973 521.013 328.705 520.972 329.468 521.128C330.221 521.282 330.841 521.577 331.328 522.014C331.816 522.451 332.145 522.943 332.317 523.49L332.637 521.922L334.079 522.217L332.324 530.808L330.882 530.513L331.208 528.914C330.824 529.358 330.315 529.689 329.682 529.909C329.062 530.119 328.381 530.149 327.639 529.997C326.876 529.841 326.225 529.512 325.685 529.01C325.146 528.508 324.767 527.881 324.551 527.129C324.334 526.377 324.315 525.567 324.492 524.7ZM331.763 526.202C331.895 525.554 331.88 524.963 331.717 524.429C331.554 523.895 331.273 523.456 330.875 523.114C330.489 522.763 330.03 522.533 329.497 522.424C328.964 522.315 328.453 522.341 327.962 522.502C327.472 522.663 327.047 522.958 326.688 523.385C326.328 523.812 326.082 524.35 325.95 524.998C325.815 525.656 325.829 526.258 325.989 526.802C326.152 527.336 326.427 527.779 326.812 528.13C327.2 528.47 327.66 528.695 328.193 528.804C328.726 528.913 329.238 528.887 329.728 528.726C330.231 528.556 330.662 528.258 331.021 527.831C331.383 527.393 331.63 526.85 331.763 526.202ZM335.086 526.865C335.265 525.987 335.6 525.255 336.09 524.669C336.582 524.073 337.173 523.655 337.865 523.415C338.566 523.178 339.304 523.138 340.077 523.296C340.746 523.433 341.336 523.716 341.847 524.147C342.359 524.568 342.716 525.06 342.917 525.624L343.846 521.078L345.288 521.372L342.917 532.973L341.475 532.678L341.805 531.063C341.418 531.518 340.914 531.855 340.292 532.077C339.671 532.287 338.99 532.317 338.248 532.165C337.485 532.009 336.829 531.679 336.279 531.175C335.739 530.673 335.361 530.046 335.144 529.294C334.928 528.542 334.908 527.732 335.086 526.865ZM342.356 528.367C342.489 527.719 342.473 527.128 342.31 526.594C342.147 526.06 341.867 525.621 341.468 525.279C341.083 524.928 340.624 524.698 340.091 524.589C339.558 524.48 339.046 524.506 338.556 524.667C338.066 524.828 337.641 525.122 337.281 525.55C336.922 525.977 336.676 526.515 336.544 527.163C336.409 527.821 336.422 528.423 336.583 528.967C336.746 529.501 337.02 529.944 337.406 530.295C337.794 530.635 338.254 530.86 338.787 530.969C339.32 531.078 339.831 531.052 340.322 530.891C340.824 530.721 341.255 530.423 341.615 529.996C341.977 529.558 342.224 529.015 342.356 528.367ZM351.171 533.451L354.996 534.232L354.759 535.392L349.507 534.319L351.74 523.393L353.167 523.685L351.171 533.451ZM359.991 536.609C359.187 536.444 358.492 536.112 357.909 535.612C357.336 535.113 356.929 534.492 356.69 533.746C356.463 532.992 356.44 532.171 356.622 531.282C356.801 530.404 357.147 529.67 357.66 529.078C358.186 528.477 358.814 528.067 359.545 527.846C360.278 527.615 361.052 527.582 361.867 527.749C362.682 527.916 363.382 528.249 363.965 528.749C364.551 529.239 364.964 529.857 365.203 530.603C365.453 531.351 365.488 532.169 365.306 533.057C365.125 533.945 364.766 534.689 364.23 535.287C363.707 535.877 363.073 536.286 362.329 536.515C361.586 536.744 360.806 536.775 359.991 536.609ZM360.248 535.355C360.76 535.459 361.265 535.437 361.764 535.289C362.262 535.14 362.696 534.854 363.066 534.428C363.447 534.005 363.707 533.449 363.848 532.759C363.989 532.069 363.973 531.456 363.799 530.92C363.626 530.384 363.343 529.956 362.951 529.636C362.562 529.306 362.111 529.089 361.599 528.984C361.076 528.877 360.571 528.899 360.083 529.05C359.607 529.192 359.19 529.477 358.83 529.905C358.471 530.332 358.22 530.89 358.079 531.58C357.936 532.28 357.941 532.896 358.094 533.428C358.257 533.963 358.528 534.394 358.907 534.722C359.289 535.039 359.736 535.25 360.248 535.355ZM371.628 529.744C372.37 529.895 372.985 530.19 373.472 530.627C373.971 531.066 374.305 531.559 374.477 532.106L374.797 530.538L376.239 530.833L374.445 539.612C374.285 540.395 373.976 541.056 373.517 541.594C373.057 542.142 372.478 542.525 371.781 542.742C371.093 542.96 370.337 542.985 369.512 542.817C368.383 542.586 367.497 542.127 366.853 541.441C366.21 540.754 365.914 539.937 365.966 538.989L367.377 539.278C367.427 539.832 367.665 540.316 368.093 540.73C368.518 541.155 369.075 541.437 369.765 541.578C370.548 541.738 371.236 541.623 371.828 541.232C372.43 540.844 372.821 540.205 373.003 539.317L373.371 537.514C372.987 537.958 372.483 538.291 371.861 538.512C371.239 538.733 370.557 538.768 369.815 538.616C369.052 538.46 368.395 538.13 367.845 537.626C367.305 537.124 366.927 536.497 366.711 535.745C366.494 534.993 366.475 534.183 366.652 533.316C366.831 532.438 367.166 531.706 367.656 531.12C368.148 530.524 368.74 530.106 369.431 529.866C370.133 529.629 370.865 529.588 371.628 529.744ZM373.922 534.818C374.055 534.17 374.04 533.579 373.876 533.045C373.713 532.511 373.433 532.072 373.035 531.73C372.649 531.379 372.19 531.149 371.657 531.04C371.124 530.931 370.612 530.957 370.122 531.118C369.632 531.279 369.207 531.573 368.848 532.001C368.488 532.428 368.242 532.966 368.11 533.614C367.975 534.272 367.988 534.874 368.149 535.418C368.312 535.952 368.587 536.395 368.972 536.746C369.36 537.086 369.82 537.311 370.353 537.42C370.886 537.529 371.398 537.503 371.888 537.342C372.391 537.172 372.822 536.874 373.181 536.447C373.543 536.009 373.79 535.466 373.922 534.818ZM380.612 540.823C379.807 540.658 379.113 540.326 378.53 539.826C377.956 539.328 377.55 538.706 377.31 537.96C377.083 537.206 377.061 536.385 377.242 535.496C377.422 534.619 377.768 533.884 378.281 533.292C378.806 532.691 379.435 532.281 380.166 532.06C380.899 531.829 381.673 531.797 382.488 531.963C383.303 532.13 384.003 532.463 384.586 532.964C385.172 533.453 385.585 534.071 385.824 534.817C386.074 535.565 386.108 536.383 385.927 537.271C385.745 538.159 385.387 538.903 384.851 539.501C384.327 540.091 383.694 540.5 382.95 540.729C382.207 540.958 381.427 540.99 380.612 540.823ZM380.868 539.569C381.38 539.674 381.886 539.652 382.384 539.503C382.883 539.355 383.317 539.068 383.687 538.642C384.067 538.219 384.328 537.663 384.469 536.973C384.61 536.283 384.594 535.67 384.42 535.134C384.247 534.598 383.964 534.17 383.572 533.85C383.182 533.52 382.731 533.303 382.219 533.198C381.697 533.092 381.191 533.113 380.703 533.264C380.228 533.407 379.81 533.691 379.451 534.119C379.091 534.546 378.841 535.105 378.7 535.794C378.557 536.494 378.562 537.111 378.714 537.643C378.877 538.177 379.149 538.608 379.528 538.936C379.909 539.253 380.356 539.464 380.868 539.569Z" fill="#575757"/>
<path d="M277.052 624.64L275.625 624.349L271.666 614.476L269.888 623.176L268.461 622.885L270.697 611.943L272.124 612.234L276.086 622.091L277.861 613.407L279.288 613.698L277.052 624.64ZM279.835 620.702C280.014 619.824 280.349 619.092 280.838 618.506C281.33 617.91 281.922 617.492 282.613 617.252C283.315 617.015 284.048 616.974 284.811 617.13C285.563 617.283 286.183 617.579 286.671 618.016C287.158 618.453 287.488 618.945 287.659 619.492L287.98 617.924L289.422 618.219L287.666 626.809L286.224 626.515L286.551 624.916C286.166 625.36 285.657 625.691 285.025 625.91C284.405 626.121 283.724 626.151 282.982 625.999C282.219 625.843 281.567 625.514 281.028 625.012C280.488 624.51 280.11 623.883 279.893 623.131C279.677 622.379 279.657 621.569 279.835 620.702ZM287.105 622.204C287.237 621.556 287.222 620.965 287.059 620.431C286.896 619.897 286.616 619.458 286.217 619.116C285.832 618.765 285.373 618.535 284.84 618.426C284.307 618.317 283.795 618.343 283.305 618.504C282.815 618.665 282.39 618.959 282.03 619.387C281.671 619.814 281.425 620.352 281.292 621C281.158 621.658 281.171 622.259 281.332 622.804C281.495 623.338 281.769 623.781 282.155 624.132C282.542 624.472 283.003 624.697 283.536 624.806C284.069 624.915 284.58 624.889 285.07 624.728C285.573 624.558 286.004 624.26 286.364 623.832C286.726 623.395 286.973 622.852 287.105 622.204ZM292.854 617.467C292.583 617.412 292.372 617.27 292.222 617.044C292.073 616.817 292.026 616.568 292.081 616.296C292.137 616.025 292.278 615.814 292.504 615.664C292.731 615.515 292.98 615.468 293.252 615.523C293.513 615.577 293.713 615.716 293.852 615.94C294.002 616.166 294.049 616.416 293.994 616.687C293.938 616.959 293.797 617.17 293.57 617.319C293.354 617.471 293.116 617.52 292.854 617.467ZM293.259 619.003L291.503 627.594L290.077 627.302L291.832 618.712L293.259 619.003ZM294.283 623.671C294.464 622.782 294.8 622.045 295.29 621.46C295.782 620.863 296.379 620.446 297.08 620.209C297.793 619.973 298.556 619.939 299.372 620.105C300.427 620.321 301.242 620.754 301.817 621.405C302.402 622.058 302.711 622.862 302.745 623.816L301.209 623.502C301.169 622.95 300.966 622.478 300.6 622.087C300.243 621.699 299.752 621.441 299.125 621.312C298.31 621.146 297.594 621.293 296.977 621.755C296.362 622.207 295.95 622.944 295.741 623.969C295.529 625.003 295.617 625.854 296.003 626.521C296.389 627.188 296.99 627.604 297.805 627.771C298.432 627.899 298.984 627.86 299.462 627.652C299.94 627.445 300.313 627.086 300.581 626.574L302.117 626.888C301.708 627.719 301.104 628.331 300.305 628.723C299.509 629.104 298.593 629.189 297.558 628.978C296.743 628.811 296.054 628.48 295.491 627.984C294.939 627.49 294.554 626.872 294.335 626.131C294.116 625.39 294.099 624.569 294.283 623.671ZM306.469 630.799C305.811 630.664 305.242 630.434 304.765 630.108C304.289 629.771 303.941 629.373 303.719 628.914C303.499 628.445 303.427 627.945 303.502 627.416L304.976 627.718C304.93 628.155 305.057 628.545 305.357 628.89C305.667 629.236 306.115 629.469 306.7 629.589C307.243 629.7 307.696 629.667 308.059 629.491C308.422 629.315 308.64 629.044 308.715 628.678C308.792 628.302 308.681 627.99 308.383 627.744C308.087 627.488 307.607 627.199 306.943 626.879C306.34 626.581 305.852 626.307 305.478 626.057C305.118 625.798 304.825 625.471 304.601 625.077C304.389 624.675 304.34 624.196 304.453 623.642C304.543 623.203 304.756 622.828 305.092 622.515C305.428 622.203 305.857 621.992 306.381 621.881C306.906 621.76 307.477 621.762 308.094 621.888C309.045 622.082 309.764 622.48 310.251 623.08C310.738 623.68 310.917 624.403 310.788 625.247L309.361 624.956C309.422 624.5 309.313 624.102 309.034 623.762C308.765 623.424 308.354 623.199 307.8 623.085C307.288 622.981 306.858 623.007 306.51 623.165C306.162 623.322 305.952 623.579 305.88 623.934C305.822 624.216 305.863 624.469 306.002 624.694C306.154 624.91 306.354 625.103 306.602 625.274C306.863 625.436 307.225 625.635 307.688 625.871C308.271 626.165 308.738 626.434 309.091 626.681C309.445 626.916 309.725 627.224 309.931 627.603C310.147 627.985 310.207 628.438 310.11 628.963C310.014 629.433 309.797 629.83 309.459 630.153C309.121 630.475 308.689 630.697 308.163 630.819C307.65 630.932 307.086 630.925 306.469 630.799ZM316.411 626.984C316.629 625.918 317.065 625.011 317.718 624.263C318.374 623.504 319.164 622.969 320.088 622.657C321.022 622.347 321.996 622.296 323.01 622.503C324.201 622.746 325.182 623.246 325.953 624.003C326.724 624.759 327.205 625.706 327.397 626.845L325.689 626.496C325.52 625.776 325.185 625.179 324.683 624.706C324.191 624.236 323.548 623.919 322.754 623.757C321.991 623.601 321.27 623.639 320.591 623.87C319.912 624.102 319.333 624.511 318.854 625.099C318.377 625.677 318.048 626.404 317.869 627.282C317.692 628.15 317.708 628.948 317.918 629.677C318.131 630.395 318.504 630.994 319.037 631.473C319.571 631.952 320.219 632.27 320.982 632.426C321.776 632.588 322.491 632.555 323.126 632.325C323.773 632.087 324.316 631.67 324.753 631.074L326.462 631.423C325.841 632.384 325.027 633.062 324.022 633.455C323.018 633.838 321.92 633.908 320.729 633.664C319.715 633.457 318.838 633.033 318.098 632.392C317.371 631.742 316.854 630.945 316.546 630C316.238 629.056 316.193 628.05 316.411 626.984ZM331.653 635.946C330.848 635.781 330.154 635.449 329.57 634.948C328.997 634.45 328.591 633.828 328.351 633.083C328.124 632.329 328.102 631.507 328.283 630.619C328.462 629.741 328.809 629.006 329.322 628.414C329.847 627.814 330.475 627.404 331.206 627.183C331.939 626.952 332.714 626.919 333.529 627.086C334.344 627.252 335.043 627.586 335.627 628.086C336.213 628.576 336.625 629.194 336.865 629.94C337.115 630.687 337.149 631.506 336.968 632.394C336.786 633.282 336.427 634.025 335.891 634.624C335.368 635.213 334.734 635.623 333.991 635.852C333.247 636.081 332.468 636.112 331.653 635.946ZM331.909 634.692C332.421 634.796 332.926 634.774 333.425 634.626C333.923 634.477 334.358 634.19 334.728 633.765C335.108 633.342 335.369 632.786 335.51 632.096C335.651 631.406 335.634 630.793 335.461 630.257C335.287 629.721 335.005 629.293 334.613 628.973C334.223 628.643 333.772 628.426 333.26 628.321C332.737 628.214 332.232 628.236 331.744 628.387C331.269 628.529 330.851 628.814 330.492 629.241C330.132 629.669 329.882 630.227 329.741 630.917C329.598 631.617 329.603 632.233 329.755 632.765C329.918 633.299 330.189 633.73 330.569 634.058C330.95 634.376 331.397 634.587 331.909 634.692ZM338.313 632.653C338.493 631.775 338.827 631.043 339.317 630.457C339.809 629.861 340.401 629.443 341.092 629.203C341.794 628.965 342.532 628.926 343.305 629.084C343.974 629.22 344.564 629.504 345.074 629.935C345.587 630.356 345.944 630.848 346.144 631.411L347.074 626.865L348.516 627.16L346.145 638.76L344.703 638.466L345.033 636.851C344.646 637.305 344.141 637.643 343.519 637.864C342.899 638.075 342.218 638.105 341.476 637.953C340.713 637.797 340.057 637.467 339.507 636.963C338.967 636.461 338.589 635.833 338.372 635.082C338.156 634.33 338.136 633.52 338.313 632.653ZM345.584 634.155C345.716 633.507 345.701 632.916 345.538 632.382C345.375 631.847 345.094 631.409 344.696 631.066C344.311 630.715 343.851 630.486 343.318 630.377C342.785 630.268 342.274 630.294 341.784 630.455C341.293 630.616 340.869 630.91 340.509 631.338C340.15 631.765 339.904 632.303 339.771 632.951C339.637 633.609 339.65 634.21 339.811 634.755C339.974 635.289 340.248 635.732 340.634 636.083C341.021 636.423 341.482 636.648 342.015 636.757C342.548 636.866 343.059 636.84 343.549 636.678C344.052 636.509 344.483 636.211 344.843 635.783C345.204 635.346 345.451 634.803 345.584 634.155ZM357.339 636.23C357.283 636.502 357.209 636.786 357.116 637.083L350.249 635.68C350.129 636.537 350.28 637.259 350.705 637.847C351.142 638.426 351.736 638.793 352.489 638.946C353.105 639.072 353.646 639.036 354.112 638.837C354.589 638.63 354.961 638.303 355.226 637.856L356.763 638.17C356.364 638.949 355.766 639.529 354.97 639.911C354.176 640.282 353.266 640.363 352.242 640.153C351.427 639.987 350.733 639.654 350.16 639.156C349.597 638.66 349.201 638.04 348.972 637.297C348.745 636.543 348.722 635.721 348.904 634.833C349.085 633.945 349.422 633.203 349.914 632.606C350.406 632.01 351.007 631.6 351.717 631.374C352.44 631.141 353.219 631.11 354.055 631.281C354.87 631.447 355.555 631.772 356.11 632.256C356.664 632.739 357.044 633.329 357.251 634.024C357.47 634.711 357.499 635.447 357.339 636.23ZM355.926 635.631C356.037 635.088 356.012 634.598 355.851 634.163C355.691 633.716 355.423 633.351 355.046 633.067C354.681 632.775 354.248 632.577 353.746 632.475C353.025 632.328 352.361 632.431 351.755 632.787C351.16 633.144 350.742 633.723 350.502 634.523L355.926 635.631Z" fill="#575757"/>
<path d="M248.402 723.318C248.62 722.252 249.055 721.345 249.709 720.597C250.365 719.838 251.155 719.303 252.079 718.991C253.013 718.681 253.987 718.629 255.001 718.836C256.192 719.08 257.173 719.58 257.944 720.336C258.715 721.092 259.196 722.04 259.388 723.179L257.679 722.83C257.511 722.109 257.175 721.513 256.673 721.04C256.182 720.569 255.539 720.253 254.744 720.091C253.981 719.935 253.261 719.972 252.582 720.204C251.903 720.435 251.324 720.845 250.845 721.433C250.367 722.01 250.039 722.738 249.86 723.616C249.682 724.483 249.699 725.281 249.909 726.01C250.122 726.729 250.495 727.328 251.028 727.807C251.562 728.286 252.21 728.603 252.973 728.759C253.767 728.922 254.482 728.888 255.116 728.659C255.764 728.421 256.306 728.004 256.744 727.407L258.453 727.756C257.831 728.718 257.018 729.396 256.012 729.789C255.009 730.172 253.911 730.241 252.72 729.998C251.706 729.791 250.829 729.366 250.089 728.725C249.362 728.076 248.844 727.279 248.537 726.334C248.229 725.389 248.184 724.384 248.402 723.318ZM268.709 728.35C268.653 728.622 268.579 728.906 268.486 729.202L261.619 727.799C261.499 728.656 261.651 729.379 262.075 729.966C262.512 730.545 263.106 730.912 263.859 731.066C264.475 731.192 265.016 731.155 265.482 730.956C265.959 730.749 266.331 730.422 266.596 729.976L268.133 730.29C267.734 731.068 267.136 731.648 266.34 732.03C265.546 732.401 264.636 732.482 263.612 732.273C262.797 732.106 262.103 731.774 261.53 731.276C260.967 730.78 260.571 730.16 260.342 729.416C260.115 728.662 260.092 727.841 260.274 726.953C260.455 726.064 260.792 725.322 261.284 724.726C261.776 724.13 262.377 723.719 263.087 723.494C263.81 723.261 264.589 723.229 265.425 723.4C266.24 723.567 266.925 723.892 267.48 724.375C268.034 724.859 268.414 725.448 268.621 726.144C268.84 726.831 268.869 727.566 268.709 728.35ZM267.296 727.751C267.407 727.207 267.382 726.718 267.221 726.282C267.061 725.836 266.793 725.471 266.416 725.187C266.051 724.894 265.618 724.697 265.116 724.594C264.395 724.447 263.731 724.551 263.125 724.906C262.53 725.263 262.112 725.842 261.872 726.642L267.296 727.751ZM272.544 726.455C272.895 726.015 273.328 725.707 273.843 725.529C274.369 725.353 274.967 725.334 275.635 725.47L275.334 726.944L274.958 726.867C273.359 726.54 272.382 727.244 272.028 728.979L271.073 733.651L269.647 733.359L271.402 724.769L272.829 725.06L272.544 726.455ZM278.75 727.495L277.715 732.558C277.63 732.976 277.658 733.292 277.799 733.506C277.943 733.71 278.234 733.856 278.673 733.946L279.723 734.161L279.476 735.368L278.191 735.105C277.397 734.943 276.838 734.638 276.516 734.191C276.194 733.744 276.118 733.103 276.289 732.267L277.323 727.203L276.21 726.976L276.451 725.8L277.564 726.028L278.006 723.864L279.432 724.156L278.99 726.319L281.232 726.777L280.992 727.953L278.75 727.495ZM283.982 725.886C283.71 725.831 283.5 725.689 283.35 725.463C283.2 725.236 283.153 724.987 283.209 724.716C283.264 724.444 283.405 724.233 283.632 724.083C283.859 723.934 284.108 723.887 284.379 723.942C284.641 723.996 284.841 724.135 284.98 724.359C285.13 724.585 285.177 724.835 285.121 725.106C285.066 725.378 284.925 725.589 284.698 725.738C284.482 725.89 284.243 725.939 283.982 725.886ZM284.387 727.422L282.631 736.013L281.205 735.721L282.96 727.131L284.387 727.422ZM290.073 729.809L288.271 729.441L286.755 736.855L285.329 736.564L286.844 729.149L285.731 728.922L285.971 727.746L287.084 727.973L287.209 727.362C287.406 726.401 287.795 725.751 288.375 725.412C288.969 725.065 289.814 725.004 290.912 725.228L290.668 726.42C290.041 726.291 289.571 726.326 289.259 726.523C288.959 726.713 288.751 727.089 288.636 727.654L288.511 728.265L290.314 728.633L290.073 729.809ZM292.999 727.729C292.727 727.673 292.516 727.532 292.367 727.306C292.217 727.079 292.17 726.83 292.226 726.558C292.281 726.286 292.422 726.076 292.649 725.926C292.875 725.776 293.124 725.729 293.396 725.785C293.657 725.838 293.858 725.977 293.997 726.202C294.147 726.428 294.194 726.677 294.138 726.949C294.083 727.221 293.942 727.431 293.715 727.581C293.499 727.733 293.26 727.782 292.999 727.729ZM293.404 729.265L291.648 737.855L290.221 737.564L291.977 728.973L293.404 729.265ZM294.427 733.932C294.609 733.044 294.944 732.307 295.434 731.721C295.926 731.125 296.523 730.708 297.225 730.47C297.937 730.235 298.701 730.2 299.516 730.367C300.572 730.583 301.387 731.016 301.961 731.667C302.546 732.32 302.856 733.124 302.889 734.078L301.353 733.764C301.314 733.211 301.111 732.74 300.744 732.349C300.388 731.961 299.896 731.702 299.269 731.574C298.454 731.408 297.738 731.555 297.121 732.017C296.506 732.468 296.094 733.206 295.885 734.23C295.674 735.265 295.761 736.116 296.147 736.782C296.534 737.449 297.134 737.866 297.95 738.033C298.577 738.161 299.129 738.121 299.607 737.914C300.085 737.707 300.457 737.348 300.725 736.836L302.262 737.15C301.852 737.981 301.248 738.592 300.45 738.984C299.653 739.366 298.737 739.451 297.703 739.24C296.888 739.073 296.199 738.742 295.636 738.246C295.084 737.752 294.698 737.134 294.48 736.393C294.261 735.651 294.244 734.831 294.427 733.932ZM303.952 735.863C304.132 734.985 304.466 734.253 304.956 733.667C305.448 733.071 306.04 732.653 306.731 732.413C307.433 732.176 308.165 732.135 308.928 732.291C309.681 732.444 310.301 732.74 310.789 733.177C311.276 733.614 311.606 734.106 311.777 734.653L312.097 733.085L313.54 733.38L311.784 741.97L310.342 741.676L310.669 740.077C310.284 740.521 309.775 740.852 309.143 741.071C308.522 741.282 307.841 741.312 307.099 741.16C306.337 741.004 305.685 740.675 305.146 740.173C304.606 739.671 304.228 739.043 304.011 738.292C303.795 737.54 303.775 736.73 303.952 735.863ZM311.223 737.365C311.355 736.717 311.34 736.126 311.177 735.592C311.014 735.058 310.733 734.619 310.335 734.276C309.95 733.926 309.49 733.696 308.957 733.587C308.424 733.478 307.913 733.504 307.423 733.665C306.932 733.826 306.508 734.12 306.148 734.548C305.789 734.975 305.543 735.513 305.41 736.161C305.276 736.819 305.289 737.42 305.45 737.965C305.613 738.499 305.887 738.942 306.273 739.293C306.66 739.633 307.121 739.858 307.654 739.967C308.187 740.076 308.698 740.05 309.188 739.888C309.691 739.719 310.122 739.421 310.482 738.993C310.843 738.556 311.09 738.013 311.223 737.365ZM317.45 735.404L316.415 740.467C316.33 740.885 316.358 741.201 316.499 741.415C316.643 741.619 316.934 741.765 317.373 741.855L318.423 742.07L318.176 743.277L316.891 743.014C316.097 742.852 315.538 742.547 315.216 742.1C314.894 741.653 314.818 741.012 314.989 740.176L316.024 735.112L314.911 734.885L315.151 733.709L316.264 733.937L316.706 731.773L318.132 732.065L317.69 734.228L319.932 734.686L319.692 735.862L317.45 735.404ZM322.682 733.795C322.411 733.739 322.2 733.598 322.05 733.372C321.901 733.145 321.853 732.896 321.909 732.624C321.964 732.353 322.106 732.142 322.332 731.992C322.559 731.843 322.808 731.796 323.079 731.851C323.341 731.904 323.541 732.043 323.68 732.268C323.83 732.494 323.877 732.744 323.821 733.015C323.766 733.287 323.625 733.498 323.398 733.647C323.182 733.799 322.944 733.848 322.682 733.795ZM323.087 735.331L321.331 743.921L319.905 743.63L321.66 735.04L323.087 735.331ZM327.48 745.325C326.676 745.161 325.981 744.828 325.398 744.328C324.825 743.83 324.418 743.208 324.179 742.462C323.952 741.708 323.929 740.887 324.111 739.999C324.29 739.121 324.636 738.386 325.149 737.794C325.675 737.194 326.303 736.783 327.034 736.562C327.767 736.331 328.541 736.299 329.356 736.465C330.171 736.632 330.871 736.965 331.454 737.466C332.04 737.956 332.453 738.573 332.692 739.319C332.942 740.067 332.977 740.885 332.795 741.773C332.614 742.662 332.255 743.405 331.719 744.003C331.195 744.593 330.562 745.002 329.818 745.231C329.075 745.46 328.295 745.492 327.48 745.325ZM327.737 744.071C328.249 744.176 328.754 744.154 329.252 744.005C329.751 743.857 330.185 743.57 330.555 743.145C330.936 742.722 331.196 742.165 331.337 741.475C331.478 740.786 331.462 740.173 331.288 739.636C331.115 739.1 330.832 738.672 330.44 738.353C330.05 738.023 329.6 737.805 329.087 737.7C328.565 737.594 328.06 737.616 327.572 737.766C327.096 737.909 326.679 738.194 326.319 738.621C325.96 739.048 325.709 739.607 325.568 740.296C325.425 740.997 325.43 741.613 325.583 742.145C325.746 742.679 326.017 743.11 326.396 743.438C326.778 743.755 327.224 743.966 327.737 744.071ZM339.763 738.576C340.808 738.789 341.589 739.281 342.107 740.051C342.627 740.81 342.765 741.786 342.521 742.977L341.487 748.04L340.076 747.752L341.069 742.893C341.244 742.036 341.163 741.339 340.827 740.802C340.492 740.254 339.954 739.905 339.212 739.753C338.459 739.599 337.81 739.712 337.265 740.09C336.73 740.471 336.371 741.11 336.187 742.009L335.216 746.759L333.79 746.468L335.545 737.877L336.972 738.169L336.722 739.391C337.094 739.01 337.545 738.748 338.074 738.606C338.615 738.466 339.178 738.456 339.763 738.576ZM346.829 749.279C346.171 749.145 345.603 748.914 345.125 748.588C344.649 748.251 344.301 747.854 344.079 747.394C343.859 746.925 343.787 746.426 343.862 745.897L345.336 746.198C345.29 746.635 345.417 747.026 345.717 747.37C346.027 747.716 346.475 747.949 347.06 748.069C347.604 748.18 348.057 748.147 348.419 747.971C348.782 747.795 349.001 747.524 349.075 747.158C349.152 746.782 349.042 746.471 348.743 746.225C348.448 745.968 347.968 745.68 347.304 745.359C346.7 745.061 346.212 744.787 345.839 744.537C345.478 744.278 345.185 743.952 344.961 743.557C344.749 743.155 344.7 742.677 344.813 742.123C344.903 741.684 345.116 741.308 345.452 740.996C345.788 740.683 346.218 740.472 346.741 740.361C347.267 740.24 347.838 740.242 348.454 740.368C349.405 740.563 350.124 740.96 350.611 741.56C351.098 742.161 351.277 742.883 351.148 743.728L349.722 743.436C349.782 742.98 349.673 742.582 349.394 742.242C349.126 741.904 348.714 741.679 348.161 741.566C347.648 741.461 347.218 741.487 346.871 741.645C346.523 741.803 346.312 742.059 346.24 742.414C346.182 742.696 346.223 742.95 346.362 743.174C346.514 743.39 346.714 743.584 346.962 743.754C347.223 743.916 347.585 744.115 348.048 744.352C348.631 744.645 349.098 744.915 349.451 745.161C349.805 745.397 350.086 745.704 350.291 746.084C350.507 746.465 350.567 746.919 350.47 747.443C350.374 747.913 350.157 748.31 349.819 748.633C349.481 748.956 349.049 749.178 348.523 749.299C348.01 749.412 347.446 749.405 346.829 749.279Z" fill="#575757"/>
<path d="M288.95 855.212L284.185 854.238L282.81 856.488L281.305 856.181L287.476 846.125L289.122 846.461L290.836 858.128L289.331 857.821L288.95 855.212ZM288.78 853.968L287.932 848.047L284.829 853.161L288.78 853.968ZM292.906 854.06C293.088 853.172 293.423 852.435 293.913 851.849C294.405 851.253 295.002 850.836 295.704 850.599C296.416 850.363 297.18 850.329 297.995 850.495C299.05 850.711 299.866 851.144 300.44 851.795C301.025 852.448 301.335 853.252 301.368 854.206L299.832 853.892C299.793 853.339 299.589 852.868 299.223 852.477C298.867 852.089 298.375 851.83 297.748 851.702C296.933 851.536 296.217 851.683 295.6 852.145C294.985 852.596 294.573 853.334 294.364 854.358C294.152 855.393 294.24 856.244 294.626 856.911C295.012 857.577 295.613 857.994 296.428 858.161C297.055 858.289 297.608 858.249 298.086 858.042C298.564 857.835 298.936 857.476 299.204 856.964L300.74 857.278C300.331 858.109 299.727 858.721 298.928 859.113C298.132 859.494 297.216 859.579 296.182 859.368C295.367 859.201 294.678 858.87 294.115 858.374C293.563 857.88 293.177 857.262 292.958 856.521C292.74 855.779 292.722 854.959 292.906 854.06ZM302.428 856.006C302.61 855.118 302.945 854.381 303.435 853.795C303.927 853.199 304.524 852.782 305.226 852.545C305.938 852.309 306.702 852.275 307.517 852.441C308.572 852.657 309.387 853.09 309.962 853.741C310.547 854.394 310.857 855.198 310.89 856.152L309.354 855.838C309.314 855.285 309.111 854.814 308.745 854.423C308.389 854.035 307.897 853.776 307.27 853.648C306.455 853.482 305.739 853.629 305.122 854.091C304.507 854.542 304.095 855.28 303.886 856.304C303.674 857.339 303.762 858.19 304.148 858.857C304.534 859.523 305.135 859.94 305.95 860.107C306.577 860.235 307.13 860.195 307.608 859.988C308.085 859.781 308.458 859.422 308.726 858.91L310.262 859.224C309.853 860.055 309.249 860.667 308.45 861.059C307.654 861.44 306.738 861.525 305.704 861.314C304.888 861.147 304.2 860.816 303.637 860.32C303.085 859.826 302.699 859.208 302.48 858.467C302.262 857.725 302.244 856.905 302.428 856.006ZM320.385 859.35C320.329 859.621 320.255 859.905 320.162 860.202L313.296 858.799C313.175 859.656 313.327 860.378 313.751 860.966C314.188 861.545 314.783 861.912 315.535 862.065C316.152 862.191 316.692 862.155 317.158 861.956C317.636 861.749 318.007 861.422 318.273 860.976L319.809 861.289C319.41 862.068 318.813 862.648 318.016 863.03C317.222 863.401 316.312 863.482 315.288 863.273C314.473 863.106 313.779 862.774 313.206 862.275C312.643 861.779 312.247 861.159 312.018 860.416C311.791 859.662 311.768 858.841 311.95 857.952C312.131 857.064 312.468 856.322 312.96 855.726C313.452 855.129 314.053 854.719 314.763 854.494C315.486 854.26 316.265 854.229 317.102 854.4C317.917 854.566 318.601 854.892 319.156 855.375C319.71 855.858 320.091 856.448 320.297 857.143C320.516 857.83 320.545 858.566 320.385 859.35ZM318.972 858.751C319.083 858.207 319.058 857.718 318.897 857.282C318.738 856.835 318.469 856.47 318.092 856.186C317.727 855.894 317.294 855.697 316.792 855.594C316.071 855.447 315.407 855.551 314.801 855.906C314.206 856.263 313.788 856.842 313.548 857.642L318.972 858.751ZM324.181 857.643C324.564 857.21 325.065 856.887 325.685 856.677C326.318 856.458 327.005 856.424 327.747 856.576C328.51 856.731 329.163 857.055 329.704 857.547C330.257 858.041 330.642 858.659 330.861 859.4C331.082 860.131 331.102 860.936 330.923 861.813C330.746 862.681 330.41 863.418 329.916 864.025C329.422 864.631 328.823 865.059 328.119 865.307C327.425 865.557 326.697 865.604 325.934 865.448C325.203 865.299 324.588 865.004 324.09 864.565C323.604 864.117 323.265 863.618 323.073 863.067L321.916 868.726L320.49 868.435L323.078 855.768L324.505 856.06L324.181 857.643ZM329.465 861.515C329.597 860.868 329.582 860.276 329.419 859.742C329.256 859.208 328.976 858.77 328.577 858.427C328.19 858.087 327.729 857.862 327.196 857.753C326.674 857.646 326.161 857.678 325.658 857.847C325.168 858.008 324.737 858.307 324.365 858.742C324.006 859.17 323.761 859.702 323.63 860.339C323.498 860.987 323.512 861.584 323.673 862.128C323.847 862.664 324.126 863.108 324.512 863.459C324.91 863.802 325.37 864.026 325.893 864.133C326.426 864.242 326.937 864.216 327.427 864.055C327.93 863.885 328.361 863.587 328.721 863.16C329.082 862.722 329.33 862.174 329.465 861.515ZM335.172 859.465L334.137 864.528C334.052 864.946 334.08 865.262 334.221 865.476C334.364 865.679 334.656 865.826 335.095 865.916L336.145 866.13L335.898 867.337L334.613 867.075C333.818 866.912 333.26 866.608 332.938 866.161C332.615 865.714 332.54 865.072 332.71 864.236L333.745 859.173L332.632 858.946L332.873 857.77L333.986 857.997L334.428 855.834L335.854 856.126L335.412 858.289L337.654 858.747L337.413 859.923L335.172 859.465ZM340.639 868.453C339.98 868.319 339.412 868.088 338.935 867.762C338.459 867.425 338.11 867.027 337.889 866.568C337.669 866.099 337.597 865.6 337.672 865.071L339.146 865.372C339.1 865.809 339.227 866.2 339.527 866.544C339.837 866.89 340.285 867.123 340.87 867.243C341.413 867.354 341.866 867.321 342.229 867.145C342.592 866.969 342.81 866.698 342.885 866.332C342.962 865.956 342.851 865.645 342.553 865.399C342.257 865.142 341.777 864.854 341.113 864.533C340.51 864.235 340.022 863.961 339.648 863.711C339.287 863.452 338.995 863.126 338.771 862.731C338.559 862.329 338.51 861.851 338.623 861.297C338.713 860.858 338.925 860.482 339.262 860.17C339.598 859.857 340.027 859.646 340.551 859.535C341.076 859.414 341.647 859.416 342.264 859.542C343.215 859.737 343.934 860.134 344.421 860.734C344.908 861.335 345.087 862.057 344.958 862.902L343.531 862.61C343.592 862.154 343.483 861.756 343.204 861.416C342.935 861.078 342.524 860.853 341.97 860.74C341.458 860.635 341.028 860.661 340.68 860.819C340.332 860.976 340.122 861.233 340.049 861.588C339.992 861.87 340.033 862.124 340.172 862.348C340.324 862.564 340.524 862.757 340.772 862.928C341.033 863.09 341.395 863.289 341.858 863.526C342.441 863.819 342.908 864.089 343.261 864.335C343.615 864.571 343.895 864.878 344.101 865.258C344.317 865.639 344.377 866.092 344.28 866.617C344.184 867.087 343.967 867.484 343.629 867.807C343.291 868.13 342.859 868.352 342.333 868.473C341.82 868.586 341.255 868.579 340.639 868.453ZM350.581 864.639C350.799 863.573 351.235 862.666 351.888 861.917C352.544 861.159 353.334 860.623 354.258 860.311C355.192 860.001 356.166 859.95 357.18 860.157C358.371 860.401 359.352 860.901 360.123 861.657C360.894 862.413 361.375 863.361 361.567 864.5L359.859 864.15C359.69 863.43 359.355 862.833 358.853 862.361C358.361 861.89 357.718 861.574 356.924 861.411C356.161 861.255 355.44 861.293 354.761 861.525C354.082 861.756 353.503 862.166 353.024 862.754C352.547 863.331 352.218 864.059 352.039 864.937C351.862 865.804 351.878 866.602 352.088 867.331C352.301 868.049 352.674 868.648 353.207 869.127C353.741 869.607 354.389 869.924 355.152 870.08C355.946 870.242 356.661 870.209 357.296 869.979C357.943 869.741 358.485 869.324 358.923 868.728L360.632 869.077C360.011 870.039 359.197 870.716 358.191 871.109C357.188 871.492 356.09 871.562 354.899 871.318C353.885 871.111 353.008 870.687 352.268 870.046C351.541 869.397 351.024 868.599 350.716 867.655C350.408 866.71 350.363 865.705 350.581 864.639ZM365.002 865.789C365.353 865.349 365.786 865.041 366.302 864.863C366.828 864.687 367.425 864.668 368.094 864.804L367.793 866.278L367.416 866.201C365.817 865.874 364.841 866.578 364.486 868.313L363.531 872.985L362.105 872.693L363.861 864.103L365.287 864.394L365.002 865.789ZM376.736 870.866C376.68 871.137 376.606 871.422 376.513 871.718L369.647 870.315C369.526 871.172 369.678 871.895 370.102 872.482C370.539 873.061 371.133 873.428 371.886 873.582C372.502 873.708 373.043 873.671 373.509 873.472C373.986 873.265 374.358 872.938 374.624 872.492L376.16 872.806C375.761 873.584 375.164 874.164 374.367 874.546C373.573 874.917 372.663 874.998 371.639 874.789C370.824 874.622 370.13 874.29 369.557 873.791C368.994 873.295 368.598 872.676 368.369 871.932C368.142 871.178 368.119 870.357 368.301 869.468C368.482 868.58 368.819 867.838 369.311 867.242C369.803 866.645 370.404 866.235 371.114 866.01C371.837 865.776 372.616 865.745 373.452 865.916C374.268 866.083 374.952 866.408 375.507 866.891C376.061 867.374 376.442 867.964 376.648 868.659C376.867 869.346 376.896 870.082 376.736 870.866ZM375.323 870.267C375.434 869.723 375.409 869.234 375.248 868.798C375.089 868.352 374.82 867.986 374.443 867.702C374.078 867.41 373.645 867.213 373.143 867.11C372.422 866.963 371.758 867.067 371.152 867.422C370.557 867.779 370.139 868.358 369.899 869.158L375.323 870.267ZM378.025 871.439C378.204 870.561 378.539 869.83 379.029 869.244C379.521 868.648 380.113 868.23 380.804 867.99C381.506 867.752 382.243 867.712 383.017 867.871C383.685 868.007 384.275 868.291 384.786 868.722C385.299 869.143 385.656 869.635 385.856 870.198L386.785 865.652L388.227 865.947L385.857 877.547L384.414 877.252L384.744 875.638C384.358 876.092 383.853 876.43 383.231 876.651C382.611 876.862 381.93 876.892 381.188 876.74C380.425 876.584 379.768 876.254 379.218 875.75C378.678 875.247 378.3 874.62 378.084 873.868C377.867 873.116 377.848 872.307 378.025 871.439ZM385.295 872.941C385.428 872.294 385.413 871.703 385.25 871.168C385.087 870.634 384.806 870.196 384.408 869.853C384.022 869.502 383.563 869.272 383.03 869.163C382.497 869.054 381.985 869.081 381.495 869.242C381.005 869.403 380.58 869.697 380.221 870.124C379.861 870.552 379.615 871.089 379.483 871.737C379.348 872.396 379.361 872.997 379.522 873.542C379.685 874.076 379.96 874.518 380.345 874.869C380.733 875.21 381.193 875.435 381.726 875.544C382.259 875.652 382.771 875.626 383.261 875.465C383.764 875.296 384.195 874.997 384.554 874.57C384.916 874.132 385.163 873.589 385.295 872.941ZM391.045 868.205C390.773 868.149 390.562 868.008 390.413 867.782C390.263 867.555 390.216 867.306 390.272 867.034C390.327 866.762 390.468 866.552 390.695 866.402C390.921 866.252 391.17 866.205 391.442 866.261C391.703 866.314 391.904 866.453 392.043 866.678C392.192 866.904 392.24 867.153 392.184 867.425C392.128 867.697 391.987 867.907 391.761 868.057C391.545 868.209 391.306 868.258 391.045 868.205ZM391.449 869.741L389.694 878.331L388.267 878.04L390.023 869.449L391.449 869.741ZM395.38 871.769L394.346 876.832C394.26 877.25 394.288 877.566 394.43 877.78C394.573 877.984 394.864 878.13 395.303 878.22L396.353 878.435L396.107 879.642L394.821 879.379C394.027 879.217 393.469 878.912 393.146 878.465C392.824 878.018 392.748 877.377 392.919 876.541L393.954 871.477L392.841 871.25L393.081 870.074L394.194 870.302L394.636 868.138L396.063 868.43L395.621 870.593L397.862 871.051L397.622 872.227L395.38 871.769ZM410.362 867.172L402.504 883.726L401.094 883.437L408.936 866.88L410.362 867.172ZM422.533 876.991C422.348 877.901 421.879 878.594 421.128 879.072C420.39 879.542 419.383 879.646 418.108 879.386L416.008 878.957L415.075 883.518L413.649 883.227L415.882 872.301L419.409 873.021C420.642 873.273 421.517 873.762 422.032 874.488C422.559 875.217 422.726 876.051 422.533 876.991ZM418.349 878.21C419.143 878.373 419.763 878.32 420.21 878.052C420.657 877.784 420.945 877.331 421.076 876.694C421.351 875.345 420.715 874.513 419.169 874.197L417.068 873.768L416.248 877.781L418.349 878.21ZM432.101 878.049L430.346 886.639L428.919 886.347L429.178 885.078C428.817 885.461 428.365 885.728 427.823 885.878C427.293 886.021 426.735 886.032 426.15 885.912C425.481 885.776 424.908 885.517 424.431 885.136C423.955 884.745 423.617 884.241 423.417 883.623C423.227 883.007 423.213 882.302 423.376 881.508L424.404 876.476L425.815 876.764L424.825 881.608C424.652 882.454 424.733 883.151 425.067 883.699C425.404 884.236 425.943 884.58 426.685 884.732C427.448 884.887 428.097 884.775 428.632 884.395C429.167 884.014 429.527 883.374 429.71 882.475L430.675 877.757L432.101 878.049ZM435.651 880.227C436.002 879.788 436.436 879.479 436.951 879.301C437.477 879.125 438.074 879.106 438.743 879.243L438.442 880.716L438.066 880.639C436.467 880.312 435.49 881.016 435.135 882.751L434.181 887.423L432.754 887.131L434.51 878.541L435.936 878.832L435.651 880.227ZM438.95 883.906C439.132 883.018 439.467 882.281 439.957 881.695C440.449 881.099 441.046 880.682 441.748 880.445C442.46 880.209 443.224 880.175 444.039 880.341C445.094 880.557 445.909 880.99 446.484 881.641C447.069 882.294 447.379 883.098 447.412 884.052L445.876 883.738C445.836 883.185 445.633 882.714 445.267 882.323C444.911 881.935 444.419 881.676 443.792 881.548C442.977 881.382 442.261 881.529 441.644 881.991C441.029 882.442 440.617 883.18 440.408 884.204C440.196 885.239 440.284 886.09 440.67 886.757C441.056 887.423 441.657 887.84 442.472 888.007C443.099 888.135 443.652 888.095 444.13 887.888C444.607 887.681 444.98 887.322 445.248 886.81L446.784 887.124C446.375 887.955 445.771 888.567 444.972 888.959C444.176 889.34 443.26 889.425 442.226 889.214C441.411 889.047 440.722 888.716 440.159 888.22C439.607 887.726 439.221 887.108 439.002 886.367C438.784 885.625 438.766 884.805 438.95 883.906ZM454.175 882.396C454.823 882.529 455.38 882.79 455.845 883.178C456.312 883.557 456.635 884.053 456.814 884.667C457.004 885.283 457.018 885.988 456.856 886.782L455.821 891.845L454.41 891.557L455.403 886.697C455.578 885.84 455.497 885.143 455.161 884.606C454.826 884.059 454.288 883.71 453.546 883.558C452.794 883.404 452.145 883.517 451.599 883.895C451.064 884.276 450.705 884.915 450.521 885.814L449.55 890.564L448.124 890.272L450.495 878.672L451.921 878.964L451.056 883.196C451.428 882.815 451.884 882.554 452.424 882.414C452.975 882.276 453.559 882.27 454.175 882.396ZM458.502 887.886C458.682 887.008 459.016 886.276 459.506 885.69C459.998 885.094 460.59 884.676 461.281 884.436C461.983 884.199 462.715 884.158 463.478 884.314C464.231 884.468 464.851 884.763 465.338 885.2C465.826 885.637 466.156 886.129 466.327 886.676L466.647 885.109L468.09 885.403L466.334 893.994L464.892 893.699L465.219 892.1C464.834 892.544 464.325 892.876 463.692 893.095C463.072 893.305 462.391 893.335 461.649 893.183C460.886 893.027 460.235 892.698 459.695 892.196C459.156 891.694 458.778 891.067 458.561 890.315C458.345 889.563 458.325 888.753 458.502 887.886ZM465.773 889.388C465.905 888.74 465.89 888.149 465.727 887.615C465.564 887.081 465.283 886.642 464.885 886.3C464.5 885.949 464.04 885.719 463.507 885.61C462.974 885.501 462.463 885.527 461.973 885.688C461.482 885.849 461.058 886.144 460.698 886.571C460.339 886.998 460.093 887.536 459.96 888.184C459.826 888.842 459.839 889.444 460 889.988C460.163 890.522 460.437 890.965 460.822 891.316C461.21 891.656 461.67 891.881 462.203 891.99C462.736 892.099 463.248 892.073 463.738 891.912C464.241 891.742 464.672 891.444 465.032 891.017C465.393 890.579 465.64 890.036 465.773 889.388ZM471.757 895.249C471.099 895.114 470.53 894.884 470.053 894.558C469.577 894.221 469.229 893.823 469.007 893.364C468.787 892.895 468.715 892.395 468.79 891.866L470.264 892.168C470.218 892.605 470.345 892.995 470.645 893.34C470.955 893.686 471.403 893.919 471.988 894.039C472.531 894.15 472.984 894.117 473.347 893.941C473.71 893.765 473.928 893.494 474.003 893.128C474.08 892.752 473.969 892.44 473.671 892.194C473.375 891.938 472.895 891.649 472.231 891.329C471.628 891.031 471.14 890.757 470.766 890.507C470.406 890.248 470.113 889.921 469.889 889.527C469.677 889.124 469.628 888.646 469.741 888.092C469.831 887.653 470.044 887.278 470.38 886.965C470.716 886.653 471.145 886.441 471.669 886.331C472.194 886.209 472.765 886.212 473.382 886.338C474.333 886.532 475.052 886.93 475.539 887.53C476.026 888.13 476.205 888.853 476.076 889.697L474.649 889.406C474.71 888.95 474.601 888.552 474.322 888.212C474.053 887.874 473.642 887.649 473.088 887.535C472.576 887.431 472.146 887.457 471.798 887.615C471.45 887.772 471.24 888.029 471.168 888.384C471.11 888.666 471.151 888.919 471.29 889.144C471.442 889.36 471.642 889.553 471.89 889.724C472.151 889.886 472.513 890.085 472.976 890.321C473.559 890.615 474.026 890.884 474.379 891.13C474.733 891.366 475.013 891.674 475.219 892.053C475.435 892.435 475.495 892.888 475.398 893.413C475.302 893.883 475.085 894.28 474.747 894.603C474.409 894.925 473.977 895.147 473.451 895.269C472.938 895.381 472.374 895.375 471.757 895.249ZM485.718 893.137C485.662 893.409 485.588 893.693 485.495 893.99L478.628 892.587C478.508 893.444 478.659 894.166 479.084 894.754C479.521 895.333 480.115 895.7 480.868 895.853C481.484 895.979 482.025 895.943 482.491 895.744C482.968 895.537 483.34 895.21 483.605 894.763L485.142 895.077C484.743 895.856 484.145 896.436 483.349 896.818C482.555 897.189 481.645 897.27 480.621 897.06C479.806 896.894 479.112 896.561 478.539 896.063C477.976 895.567 477.58 894.947 477.351 894.204C477.124 893.45 477.101 892.629 477.283 891.74C477.464 890.852 477.801 890.11 478.293 889.513C478.785 888.917 479.386 888.507 480.096 888.282C480.819 888.048 481.598 888.017 482.434 888.188C483.249 888.354 483.934 888.679 484.489 889.163C485.043 889.646 485.423 890.236 485.63 890.931C485.849 891.618 485.878 892.354 485.718 893.137ZM484.305 892.539C484.416 891.995 484.391 891.505 484.23 891.07C484.07 890.623 483.802 890.258 483.425 889.974C483.06 889.682 482.627 889.485 482.125 889.382C481.404 889.235 480.74 889.339 480.134 889.694C479.539 890.051 479.121 890.63 478.881 891.43L484.305 892.539ZM491.42 893.421C491.638 892.355 492.074 891.448 492.727 890.7C493.383 889.941 494.173 889.406 495.097 889.094C496.031 888.784 497.005 888.732 498.019 888.939C499.21 889.183 500.191 889.683 500.962 890.439C501.733 891.195 502.214 892.143 502.406 893.282L500.698 892.933C500.529 892.212 500.194 891.616 499.692 891.143C499.2 890.672 498.557 890.356 497.763 890.194C497 890.038 496.279 890.075 495.6 890.307C494.921 890.538 494.342 890.948 493.863 891.536C493.386 892.113 493.057 892.841 492.878 893.719C492.701 894.586 492.717 895.384 492.927 896.113C493.14 896.832 493.513 897.431 494.046 897.91C494.58 898.389 495.228 898.706 495.991 898.862C496.785 899.025 497.5 898.991 498.135 898.762C498.782 898.524 499.325 898.107 499.762 897.51L501.471 897.859C500.85 898.821 500.036 899.499 499.03 899.892C498.027 900.275 496.929 900.344 495.738 900.101C494.724 899.894 493.847 899.469 493.107 898.828C492.38 898.179 491.863 897.382 491.555 896.437C491.247 895.492 491.202 894.487 491.42 893.421ZM503.295 897.04C503.475 896.162 503.809 895.43 504.299 894.845C504.791 894.248 505.383 893.83 506.074 893.591C506.776 893.353 507.508 893.312 508.271 893.468C509.024 893.622 509.644 893.917 510.131 894.354C510.619 894.792 510.949 895.283 511.12 895.83L511.44 894.263L512.882 894.557L511.127 903.148L509.685 902.853L510.011 901.254C509.627 901.698 509.118 902.03 508.485 902.249C507.865 902.459 507.184 902.489 506.442 902.337C505.679 902.181 505.028 901.852 504.488 901.35C503.949 900.848 503.571 900.221 503.354 899.469C503.138 898.717 503.118 897.907 503.295 897.04ZM510.566 898.542C510.698 897.894 510.683 897.303 510.52 896.769C510.357 896.235 510.076 895.796 509.678 895.454C509.293 895.103 508.833 894.873 508.3 894.764C507.767 894.655 507.256 894.681 506.766 894.842C506.275 895.003 505.85 895.298 505.491 895.725C505.131 896.152 504.885 896.69 504.753 897.338C504.619 897.996 504.632 898.598 504.793 899.142C504.956 899.676 505.23 900.119 505.615 900.47C506.003 900.81 506.463 901.035 506.996 901.144C507.529 901.253 508.041 901.227 508.531 901.066C509.034 900.896 509.465 900.598 509.825 900.171C510.186 899.733 510.433 899.19 510.566 898.542ZM516.435 896.737C516.786 896.297 517.219 895.988 517.734 895.81C518.26 895.635 518.857 895.615 519.526 895.752L519.225 897.225L518.849 897.148C517.25 896.822 516.273 897.526 515.919 899.26L514.964 903.932L513.538 903.64L515.293 895.05L516.72 895.341L516.435 896.737ZM519.737 900.4C519.916 899.522 520.251 898.79 520.741 898.205C521.233 897.608 521.824 897.19 522.516 896.951C523.217 896.713 523.955 896.673 524.728 896.831C525.397 896.968 525.987 897.252 526.498 897.683C527.01 898.103 527.367 898.595 527.568 899.159L528.497 894.613L529.939 894.908L527.568 906.508L526.126 906.213L526.456 904.598C526.069 905.053 525.565 905.391 524.943 905.612C524.322 905.823 523.641 905.852 522.899 905.701C522.136 905.545 521.48 905.215 520.93 904.71C520.39 904.208 520.012 903.581 519.795 902.829C519.579 902.077 519.559 901.267 519.737 900.4ZM527.007 901.902C527.14 901.254 527.124 900.663 526.961 900.129C526.798 899.595 526.518 899.157 526.119 898.814C525.734 898.463 525.275 898.233 524.742 898.124C524.209 898.015 523.697 898.041 523.207 898.202C522.717 898.363 522.292 898.658 521.932 899.085C521.573 899.512 521.327 900.05 521.195 900.698C521.06 901.356 521.073 901.958 521.234 902.502C521.397 903.036 521.671 903.479 522.057 903.83C522.445 904.171 522.905 904.395 523.438 904.504C523.971 904.613 524.482 904.587 524.973 904.426C525.475 904.256 525.906 903.958 526.266 903.531C526.628 903.093 526.875 902.55 527.007 901.902ZM532.991 907.763C532.333 907.628 531.765 907.398 531.287 907.072C530.812 906.735 530.463 906.337 530.241 905.878C530.021 905.409 529.949 904.909 530.024 904.38L531.498 904.682C531.452 905.119 531.579 905.509 531.879 905.854C532.189 906.2 532.637 906.433 533.222 906.553C533.766 906.664 534.219 906.631 534.581 906.455C534.944 906.279 535.163 906.008 535.237 905.642C535.314 905.266 535.204 904.954 534.906 904.708C534.61 904.452 534.13 904.163 533.466 903.843C532.863 903.545 532.374 903.271 532.001 903.021C531.64 902.762 531.347 902.435 531.123 902.041C530.911 901.639 530.862 901.16 530.975 900.606C531.065 900.168 531.278 899.792 531.614 899.479C531.95 899.167 532.38 898.956 532.903 898.845C533.429 898.724 534 898.726 534.616 898.852C535.567 899.046 536.286 899.444 536.773 900.044C537.26 900.644 537.439 901.367 537.31 902.211L535.884 901.92C535.944 901.464 535.835 901.066 535.556 900.726C535.288 900.388 534.877 900.163 534.323 900.049C533.811 899.945 533.381 899.971 533.033 900.129C532.685 900.286 532.475 900.543 532.402 900.898C532.344 901.18 532.385 901.433 532.524 901.658C532.676 901.874 532.876 902.067 533.124 902.238C533.385 902.4 533.747 902.599 534.211 902.835C534.793 903.129 535.26 903.398 535.613 903.645C535.968 903.88 536.248 904.188 536.453 904.567C536.669 904.949 536.729 905.402 536.633 905.927C536.537 906.397 536.319 906.794 535.981 907.117C535.643 907.439 535.211 907.661 534.686 907.783C534.173 907.896 533.608 907.889 532.991 907.763Z" fill="#575757"/>
<rect x="265.041" y="635.965" width="799" height="47" rx="7.5" transform="rotate(11.5501 265.041 635.965)" fill="white" stroke="#C1C1C1"/>
<rect x="243.417" y="741.778" width="799" height="47" rx="7.5" transform="rotate(11.5501 243.417 741.778)" fill="white" stroke="#C1C1C1"/>
<path d="M973.759 910.408C972.907 910.941 972.647 912.063 973.18 912.915L979.849 923.578C980.914 925.28 983.157 925.798 984.86 924.734L995.527 918.069C996.379 917.537 996.639 916.415 996.106 915.563C995.574 914.711 994.452 914.452 993.6 914.984L984.47 920.689C983.618 921.221 982.496 920.962 981.964 920.11L976.265 910.987C975.732 910.135 974.61 909.876 973.759 910.408Z" fill="#262626" fill-opacity="0.7"/>
<rect x="285.664" y="535.051" width="789.359" height="47" rx="7.5" transform="rotate(11.5501 285.664 535.051)" fill="white" stroke="#C1C1C1"/>
<path d="M284.737 542.853C285.524 539.068 289.23 536.638 293.015 537.425L406.152 560.953L396.99 605.011L283.853 581.483C280.068 580.695 277.638 576.989 278.425 573.204L284.737 542.853Z" fill="#F2F2F2"/>
<path d="M291.71 561.313C291.91 560.244 292.336 559.331 292.987 558.573C293.649 557.818 294.449 557.284 295.387 556.971C296.337 556.649 297.32 556.584 298.337 556.774C299.501 556.991 300.48 557.473 301.274 558.218C302.08 558.955 302.59 559.885 302.803 561.01L300.648 560.608C300.473 559.978 300.16 559.475 299.709 559.097C299.259 558.72 298.704 558.47 298.043 558.346C297.32 558.211 296.644 558.253 296.017 558.472C295.391 558.692 294.858 559.075 294.419 559.622C293.991 560.172 293.701 560.85 293.55 561.657C293.399 562.465 293.424 563.202 293.625 563.869C293.837 564.538 294.194 565.093 294.698 565.534C295.203 565.965 295.817 566.248 296.541 566.383C297.201 566.507 297.81 566.474 298.366 566.285C298.922 566.096 299.396 565.739 299.787 565.216L301.941 565.618C301.336 566.591 300.525 567.274 299.507 567.67C298.499 568.068 297.414 568.158 296.25 567.94C295.222 567.748 294.328 567.337 293.567 566.706C292.808 566.065 292.256 565.273 291.911 564.33C291.577 563.388 291.51 562.383 291.71 561.313ZM309.575 561.218C310.235 561.342 310.796 561.593 311.257 561.972C311.728 562.353 312.059 562.849 312.248 563.459C312.449 564.072 312.475 564.771 312.328 565.558L311.373 570.669L309.596 570.337L310.501 565.493C310.646 564.717 310.563 564.088 310.251 563.607C309.942 563.115 309.452 562.806 308.78 562.681C308.109 562.556 307.536 562.665 307.059 563.01C306.594 563.347 306.29 563.903 306.145 564.679L305.239 569.523L303.446 569.188L305.622 557.549L307.415 557.884L306.671 561.863C307.043 561.553 307.479 561.342 307.978 561.229C308.487 561.118 309.019 561.114 309.575 561.218ZM317.392 571.941C316.575 571.788 315.87 571.466 315.278 570.976C314.688 570.475 314.267 569.854 314.015 569.112C313.765 568.36 313.723 567.538 313.889 566.647C314.054 565.766 314.394 565.022 314.909 564.413C315.425 563.804 316.052 563.378 316.792 563.137C317.531 562.895 318.315 562.852 319.144 563.007C319.972 563.161 320.687 563.485 321.29 563.977C321.892 564.47 322.324 565.093 322.584 565.847C322.845 566.601 322.893 567.419 322.728 568.299C322.564 569.18 322.218 569.924 321.693 570.531C321.167 571.138 320.523 571.566 319.76 571.814C319.01 572.053 318.221 572.096 317.392 571.941ZM317.683 570.384C318.145 570.47 318.595 570.44 319.035 570.295C319.485 570.151 319.877 569.882 320.211 569.489C320.545 569.096 320.771 568.584 320.888 567.955C321.006 567.326 320.984 566.774 320.823 566.299C320.664 565.814 320.406 565.424 320.049 565.129C319.692 564.834 319.283 564.644 318.821 564.558C318.36 564.472 317.909 564.501 317.47 564.647C317.041 564.795 316.67 565.067 316.357 565.464C316.046 565.851 315.831 566.359 315.714 566.988C315.539 567.921 315.64 568.689 316.016 569.291C316.404 569.884 316.96 570.249 317.683 570.384ZM327.422 573.816C326.604 573.663 325.899 573.341 325.307 572.851C324.717 572.35 324.296 571.728 324.044 570.987C323.794 570.235 323.752 569.413 323.919 568.522C324.083 567.641 324.423 566.896 324.939 566.287C325.454 565.678 326.082 565.253 326.821 565.011C327.561 564.77 328.345 564.726 329.173 564.881C330.001 565.036 330.717 565.36 331.319 565.852C331.922 566.344 332.353 566.968 332.614 567.722C332.874 568.476 332.922 569.293 332.758 570.174C332.593 571.055 332.248 571.799 331.722 572.406C331.196 573.013 330.552 573.44 329.789 573.688C329.039 573.928 328.25 573.97 327.422 573.816ZM327.713 572.258C328.174 572.345 328.625 572.315 329.064 572.169C329.514 572.026 329.906 571.757 330.24 571.364C330.574 570.97 330.8 570.459 330.918 569.83C331.035 569.201 331.014 568.649 330.853 568.174C330.694 567.688 330.436 567.298 330.079 567.004C329.721 566.709 329.312 566.519 328.851 566.432C328.389 566.346 327.939 566.376 327.499 566.522C327.07 566.669 326.699 566.942 326.386 567.339C326.075 567.726 325.861 568.234 325.743 568.863C325.569 569.796 325.669 570.564 326.045 571.165C326.434 571.759 326.989 572.123 327.713 572.258ZM336.838 575.575C336.156 575.448 335.566 575.213 335.065 574.87C334.578 574.518 334.216 574.103 333.98 573.625C333.745 573.136 333.667 572.628 333.744 572.1L335.6 572.447C335.563 572.82 335.678 573.161 335.945 573.472C336.225 573.774 336.606 573.97 337.089 574.06C337.592 574.154 337.998 574.132 338.305 573.994C338.626 573.848 338.814 573.623 338.871 573.319C338.932 572.994 338.82 572.723 338.535 572.507C338.26 572.293 337.805 572.029 337.169 571.715C336.552 571.415 336.055 571.143 335.677 570.899C335.3 570.654 334.991 570.331 334.752 569.928C334.523 569.527 334.462 569.044 334.567 568.477C334.654 568.016 334.868 567.622 335.211 567.296C335.557 566.959 336.001 566.727 336.546 566.601C337.101 566.477 337.708 566.477 338.369 566.6C339.355 566.784 340.099 567.184 340.603 567.799C341.119 568.405 341.317 569.142 341.199 570.01L339.406 569.675C339.447 569.281 339.347 568.942 339.107 568.659C338.867 568.375 338.506 568.188 338.024 568.098C337.552 568.01 337.174 568.031 336.889 568.163C336.604 568.294 336.434 568.506 336.379 568.8C336.336 569.031 336.383 569.24 336.522 569.429C336.66 569.617 336.841 569.781 337.065 569.921C337.29 570.05 337.626 570.227 338.072 570.451C338.67 570.736 339.152 571.005 339.517 571.258C339.894 571.502 340.198 571.82 340.429 572.21C340.66 572.6 340.729 573.074 340.636 573.632C340.543 574.125 340.325 574.54 339.98 574.877C339.635 575.214 339.19 575.445 338.645 575.572C338.111 575.7 337.509 575.701 336.838 575.575ZM350.912 573.356C350.851 573.681 350.776 573.97 350.685 574.225L344.063 572.987C343.986 573.689 344.139 574.292 344.522 574.798C344.905 575.304 345.432 575.619 346.103 575.745C347.068 575.925 347.825 575.649 348.374 574.916L350.309 575.277C349.898 576.025 349.298 576.591 348.51 576.976C347.735 577.352 346.838 577.445 345.821 577.255C344.993 577.1 344.283 576.777 343.691 576.287C343.111 575.788 342.695 575.167 342.443 574.426C342.204 573.676 342.167 572.855 342.334 571.964C342.5 571.073 342.825 570.325 343.307 569.72C343.801 569.107 344.408 568.678 345.126 568.433C345.855 568.189 346.645 568.147 347.494 568.306C348.312 568.458 349.007 568.773 349.58 569.249C350.153 569.725 350.557 570.321 350.792 571.038C351.029 571.744 351.069 572.517 350.912 573.356ZM349.146 572.44C349.259 571.777 349.122 571.203 348.736 570.719C348.349 570.234 347.815 569.928 347.133 569.801C346.514 569.685 345.948 569.785 345.433 570.101C344.92 570.407 344.559 570.888 344.35 571.543L349.146 572.44ZM364.388 569.266L364.115 570.729L359.475 569.861L358.873 573.086L362.49 573.762L362.217 575.224L358.599 574.548L357.706 579.329L355.913 578.994L357.956 568.064L364.388 569.266ZM366.753 570.864C366.428 570.803 366.176 570.642 365.997 570.38C365.818 570.119 365.759 569.826 365.82 569.501C365.881 569.176 366.042 568.924 366.303 568.745C366.564 568.566 366.858 568.507 367.183 568.567C367.497 568.626 367.744 568.786 367.923 569.048C368.102 569.309 368.161 569.602 368.1 569.927C368.04 570.252 367.879 570.504 367.617 570.683C367.356 570.862 367.068 570.922 366.753 570.864ZM367.419 572.176L365.8 580.842L364.007 580.507L365.627 571.841L367.419 572.176ZM372.122 569.979L369.947 581.617L368.154 581.282L370.329 569.644L372.122 569.979ZM381.093 578.997C381.032 579.322 380.956 579.611 380.865 579.866L374.244 578.628C374.167 579.33 374.32 579.934 374.703 580.439C375.086 580.945 375.613 581.26 376.284 581.386C377.248 581.566 378.005 581.29 378.555 580.557L380.489 580.918C380.078 581.666 379.479 582.233 378.691 582.617C377.915 582.993 377.019 583.086 376.002 582.896C375.173 582.741 374.463 582.418 373.871 581.928C373.292 581.429 372.876 580.808 372.624 580.067C372.384 579.317 372.348 578.496 372.514 577.605C372.681 576.714 373.005 575.966 373.487 575.361C373.981 574.748 374.588 574.319 375.307 574.074C376.036 573.83 376.825 573.788 377.674 573.947C378.492 574.099 379.188 574.414 379.761 574.89C380.333 575.366 380.737 575.962 380.972 576.679C381.209 577.385 381.249 578.158 381.093 578.997ZM379.327 578.081C379.44 577.418 379.303 576.845 378.916 576.36C378.529 575.875 377.995 575.569 377.313 575.442C376.695 575.326 376.128 575.426 375.613 575.743C375.1 576.048 374.739 576.529 374.53 577.184L379.327 578.081Z" fill="#575757"/>
<defs>
<filter id="filter0_d_272_52" x="146.482" y="172.833" width="1057.51" height="933.568" filterUnits="userSpaceOnUse" color-interpolation-filters="sRGB">
<feFlood flood-opacity="0" result="BackgroundImageFix"/>
<feColorMatrix in="SourceAlpha" type="matrix" values="0 0 0 0 0 0 0 0 0 0 0 0 0 0 0 0 0 0 127 0" result="hardAlpha"/>
<feOffset dx="2" dy="6"/>
<feGaussianBlur stdDeviation="9"/>
<feComposite in2="hardAlpha" operator="out"/>
<feColorMatrix type="matrix" values="0 0 0 0 0 0 0 0 0 0 0 0 0 0 0 0 0 0 0.1 0"/>
<feBlend mode="normal" in2="BackgroundImageFix" result="effect1_dropShadow_272_52"/>
<feBlend mode="normal" in="SourceGraphic" in2="effect1_dropShadow_272_52" result="shape"/>
</filter>
<clipPath id="clip0_272_52">
<rect width="42" height="42" fill="white" transform="translate(346.333 230.499) rotate(11.5501)"/>
</clipPath>
</defs>
</svg>
